<svg width="20" height="20" viewBox="0 0 20 20" fill="none" xmlns="http://www.w3.org/2000/svg">
<g id="Group">
<path id="Vector" fill-rule="evenodd" clip-rule="evenodd" d="M4.72912 8.34177C5.15528 9.99716 6.0522 11.6879 7.07528 12.7102C8.49836 14.1341 9.8322 14.6464 10.8999 14.6872C11.9591 14.7272 12.913 14.3102 13.6276 13.5933C13.9099 13.311 14.1168 12.8725 14.2068 12.2741C14.296 11.6818 14.2622 10.9864 14.1184 10.2502C13.5807 7.49562 11.0068 5.28023 7.79759 4.4987C6.32759 4.141 5.43989 4.26408 5.00374 4.70254C4.7422 4.96408 4.54451 5.4187 4.48759 6.08562C4.43143 6.73946 4.51836 7.51946 4.72912 8.34177ZM2.83989 6.01639C2.90989 5.201 3.16528 4.39331 3.75989 3.79716C4.91836 2.63562 6.77374 2.76793 8.28451 3.13562C12.0053 4.041 15.093 6.63023 15.7476 9.98331C15.9091 10.8141 15.9607 11.6548 15.8453 12.4218C15.7299 13.1833 15.443 13.9256 14.8722 14.4987C14.3398 15.035 13.7014 15.4545 12.9979 15.7305C12.2944 16.0065 11.5411 16.133 10.786 16.1018C9.13605 16.0387 7.42143 15.2587 5.80912 13.6472C4.57297 12.4102 3.58297 10.4941 3.11682 8.67946C2.88066 7.76639 2.76912 6.84485 2.83989 6.01639Z" fill="#A259FF"/>
<path id="Vector_2" fill-rule="evenodd" clip-rule="evenodd" d="M10.92 7.27713C11.37 7.34329 11.6723 7.7079 11.5954 8.09252L11.2323 9.89483L12.9885 11.9056L14.1692 13.481L15.7185 15.8041C15.9446 16.1433 15.8061 16.5748 15.4092 16.7679C15.0123 16.961 14.5069 16.8425 14.2815 16.5041L12.7531 14.2117L11.8123 12.9579L8.91845 12.5756C8.46692 12.5156 8.15692 12.1548 8.22769 11.7694C8.29692 11.3833 8.71999 11.1194 9.17153 11.1787L10.4354 11.3456L9.72922 10.5379L6.73461 7.97021C6.41153 7.69406 6.41307 7.24713 6.73692 6.97098C6.90272 6.83768 7.10919 6.76521 7.32194 6.76563C7.53468 6.76605 7.74087 6.83933 7.90615 6.97329L9.81307 8.60713L9.96461 7.85329C10.0415 7.46867 10.47 7.21098 10.92 7.27636" fill="#A259FF"/>
<path id="Vector_3" fill-rule="evenodd" clip-rule="evenodd" d="M10 18.4615C14.6731 18.4615 18.4615 14.6731 18.4615 10C18.4615 5.32692 14.6731 1.53846 10 1.53846C5.32692 1.53846 1.53846 5.32692 1.53846 10C1.53846 14.6731 5.32692 18.4615 10 18.4615ZM10 20C15.5231 20 20 15.5231 20 10C20 4.47692 15.5231 0 10 0C4.47692 0 0 4.47692 0 10C0 15.5231 4.47692 20 10 20Z" fill="#A259FF"/>
</g>
</svg>
