<svg width="286" height="49" viewBox="0 0 286 49" fill="none" xmlns="http://www.w3.org/2000/svg">
<g filter="url(#filter0_d_141_100)">
<rect x="4" width="278" height="41" rx="10" fill="#121212"/>
<rect x="4.5" y="0.5" width="277" height="40" rx="9.5" stroke="#A259FF"/>
</g>
<path d="M90.1411 27.2671H88.7715V22.4624H90.1411V27.2671ZM95.4512 23.1802H83.4834V22.0303H95.4512V23.1802ZM89.9873 16.7349C89.9873 17.4722 89.7529 18.1484 89.2842 18.7637C88.8203 19.374 88.188 19.8843 87.3872 20.2944C86.5864 20.6997 85.6904 20.9756 84.6992 21.1221L84.1865 20.0161C85.0264 19.9087 85.7954 19.689 86.4937 19.3569C87.1919 19.0249 87.7461 18.6294 88.1562 18.1704C88.5664 17.7114 88.7715 17.2329 88.7715 16.7349V16.3906H89.9873V16.7349ZM90.1558 16.7349C90.1558 17.2231 90.3584 17.6992 90.7637 18.1631C91.1689 18.627 91.7207 19.0249 92.4189 19.3569C93.1172 19.689 93.8838 19.9087 94.7188 20.0161L94.2134 21.1221C93.2319 20.9854 92.3384 20.707 91.5327 20.2871C90.7319 19.8672 90.0996 19.3521 89.6357 18.7417C89.1719 18.1265 88.9399 17.4575 88.9399 16.7349V16.3906H90.1558V16.7349ZM94.3159 16.8228H84.626V15.7095H94.3159V16.8228ZM90.1411 16.0903H88.7715V14.1201H90.1411V16.0903ZM100.812 17.2402C100.812 18.0312 100.664 18.7686 100.366 19.4521C100.068 20.1309 99.6431 20.7217 99.0913 21.2246C98.5396 21.7275 97.8853 22.106 97.1284 22.3599L96.4473 21.2759C97.1016 21.061 97.6729 20.7485 98.1611 20.3384C98.6543 19.9282 99.0278 19.457 99.2817 18.9248C99.5405 18.3877 99.6699 17.8262 99.6699 17.2402V16.6104H100.812V17.2402ZM101.04 17.2402C101.04 17.792 101.171 18.3193 101.435 18.8223C101.704 19.3203 102.082 19.7622 102.57 20.1479C103.063 20.5337 103.64 20.8315 104.299 21.0415L103.618 22.1401C102.866 21.9058 102.211 21.5469 101.655 21.0635C101.098 20.5801 100.668 20.0112 100.366 19.3569C100.063 18.6978 99.9116 17.9922 99.9116 17.2402V16.6104H101.04V17.2402ZM103.903 16.9253H96.8135V15.812H103.903V16.9253ZM101.069 16.2441H99.6699V14.2007H101.069V16.2441ZM106.716 19.2324H103.457V18.1045H106.716V19.2324ZM107.39 23.9053H105.998V14.1274H107.39V23.9053ZM107.741 26.9814H98.8643V25.8315H107.741V26.9814ZM100.263 26.4907H98.8643V23.041H100.263V26.4907ZM119.057 14.3911C120.014 14.3911 120.844 14.4912 121.547 14.6914C122.25 14.8916 122.79 15.1821 123.166 15.563C123.547 15.939 123.737 16.3882 123.737 16.9106C123.737 17.4282 123.547 17.8726 123.166 18.2437C122.79 18.6099 122.25 18.8931 121.547 19.0933C120.844 19.2935 120.014 19.3936 119.057 19.3936C118.105 19.3936 117.275 19.2935 116.567 19.0933C115.864 18.8931 115.319 18.6099 114.934 18.2437C114.548 17.8726 114.355 17.4282 114.355 16.9106C114.355 16.3882 114.548 15.939 114.934 15.563C115.319 15.1821 115.864 14.8916 116.567 14.6914C117.275 14.4912 118.105 14.3911 119.057 14.3911ZM119.057 15.4897C118.388 15.4897 117.807 15.5459 117.314 15.6582C116.826 15.7656 116.45 15.9268 116.186 16.1416C115.927 16.3564 115.798 16.6128 115.798 16.9106C115.798 17.2036 115.925 17.4526 116.179 17.6577C116.438 17.8628 116.811 18.0215 117.299 18.1338C117.792 18.2412 118.378 18.2998 119.057 18.3096C119.721 18.2998 120.297 18.2412 120.786 18.1338C121.279 18.0215 121.655 17.8628 121.914 17.6577C122.177 17.4526 122.309 17.2036 122.309 16.9106C122.309 16.6128 122.177 16.3564 121.914 16.1416C121.655 15.9268 121.279 15.7656 120.786 15.6582C120.297 15.5459 119.721 15.4897 119.057 15.4897ZM123.583 27.0767H114.509V22.7041H123.583V27.0767ZM115.886 25.9487H122.221V23.8174H115.886V25.9487ZM125.041 21.5396H113.073V20.4043H125.041V21.5396ZM129.729 14.8892C130.393 14.8794 130.988 15.0088 131.516 15.2773C132.048 15.541 132.465 15.9121 132.768 16.3906C133.076 16.8643 133.229 17.4038 133.229 18.0093C133.229 18.6147 133.076 19.1567 132.768 19.6353C132.465 20.1138 132.048 20.4873 131.516 20.7559C130.988 21.0244 130.393 21.1587 129.729 21.1587C129.06 21.1587 128.461 21.0244 127.934 20.7559C127.407 20.4873 126.992 20.1138 126.689 19.6353C126.386 19.1567 126.235 18.6147 126.235 18.0093C126.235 17.4038 126.386 16.8643 126.689 16.3906C126.992 15.917 127.407 15.5459 127.934 15.2773C128.466 15.0088 129.064 14.8794 129.729 14.8892ZM129.729 16.0684C129.323 16.0684 128.957 16.1489 128.63 16.3101C128.308 16.4712 128.054 16.6982 127.868 16.9912C127.688 17.2793 127.597 17.6187 127.597 18.0093C127.597 18.3999 127.688 18.7441 127.868 19.042C128.054 19.335 128.308 19.562 128.63 19.7231C128.957 19.8843 129.323 19.9648 129.729 19.9648C130.134 19.9648 130.5 19.8843 130.827 19.7231C131.154 19.562 131.408 19.335 131.589 19.042C131.774 18.7441 131.867 18.3999 131.867 18.0093C131.867 17.6187 131.774 17.2793 131.589 16.9912C131.408 16.6982 131.154 16.4712 130.827 16.3101C130.505 16.1489 130.139 16.0684 129.729 16.0684ZM136.35 21.8325H134.965V14.1128H136.35V21.8325ZM138.261 18.5586H135.961V17.4087H138.261V18.5586ZM136.35 27.2671H134.965V23.5977H127.678V22.4697H136.35V27.2671ZM140.092 27.5967H138.715L142.128 14.8965H143.52L140.092 27.5967ZM154.836 21.2979H145.695V20.1772H154.836V21.2979ZM156.213 25.6411H144.201V24.4912H156.213V25.6411ZM150.859 24.916H149.497V20.6753H150.859V24.916ZM154.711 16.2588H147.094V20.6899H145.695V15.1455H154.711V16.2588ZM167.426 19.606H163.801V18.4854H167.426V19.606ZM161.633 17.4526C161.633 18.4585 161.481 19.4302 161.179 20.3677C160.876 21.3003 160.449 22.1279 159.897 22.8506C159.345 23.5732 158.706 24.1274 157.978 24.5132L157.092 23.3853C157.761 23.0679 158.352 22.5991 158.864 21.979C159.382 21.354 159.782 20.646 160.065 19.855C160.349 19.064 160.49 18.2632 160.49 17.4526V15.2041H161.633V17.4526ZM161.904 17.4526C161.904 18.2583 162.043 19.042 162.321 19.8037C162.604 20.5605 162.998 21.2344 163.5 21.8252C164.008 22.4111 164.589 22.853 165.244 23.1509L164.409 24.2788C163.676 23.9028 163.037 23.3706 162.49 22.6821C161.948 21.9888 161.525 21.1929 161.223 20.2944C160.925 19.3911 160.776 18.4438 160.776 17.4526V15.2041H161.904V17.4526ZM168.115 27.2744H166.73V14.1128H168.115V27.2744ZM185.803 25.6118H173.791V24.4692H185.803V25.6118ZM180.449 24.7915H179.086V21.4077H180.449V24.7915ZM176.56 17.2769H183.005V15.0137H184.375V21.7739H175.161V15.0137H176.56V17.2769ZM183.005 20.646V18.3975H176.56V20.646H183.005ZM197.683 27.2744H196.306V14.1128H197.683V27.2744ZM196.628 20.2065H193.903V19.0566H196.628V20.2065ZM188.271 22.9751C189.555 22.9751 190.634 22.9482 191.508 22.8945C192.387 22.8408 193.276 22.731 194.174 22.5649L194.284 23.7222C193.366 23.8833 192.453 23.9932 191.545 24.0518C190.637 24.1055 189.545 24.1372 188.271 24.147H187.246V22.9751H188.271ZM193.127 20.0015H188.63V23.3413H187.246V18.8735H191.772V16.4346H187.202V15.2993H193.127V20.0015ZM209.943 27.2305H208.559V14.1128H209.943V27.2305ZM211.979 20.5142H209.584V19.3569H211.979V20.5142ZM206.508 15.5044C206.508 16.8179 206.303 18.0459 205.893 19.1885C205.488 20.3262 204.838 21.376 203.945 22.3379C203.056 23.2949 201.911 24.1201 200.51 24.8135L199.733 23.7295C200.939 23.124 201.943 22.4258 202.744 21.6348C203.544 20.8389 204.145 19.9526 204.545 18.9761C204.946 17.9946 205.146 16.918 205.146 15.7461V15.5044H206.508ZM205.849 16.6616H200.378V15.5044H205.849V16.6616ZM223.596 27.2378H222.189V14.1128H223.596V27.2378ZM219.699 15.5264C219.699 16.8643 219.492 18.1021 219.077 19.2397C218.667 20.3726 218.007 21.4175 217.099 22.3745C216.191 23.3267 215.009 24.1519 213.554 24.8501L212.807 23.7222C214.072 23.1265 215.109 22.4331 215.92 21.6421C216.735 20.8511 217.338 19.9673 217.729 18.9907C218.12 18.0142 218.315 16.9351 218.315 15.7534V15.5264H219.699ZM218.916 16.6396H213.444V15.5264H218.916V16.6396Z" fill="white"/>
<path d="M73.2105 28.8947H63.3684V16.3684H73.2105M73.2105 14.5789H63.3684C62.8938 14.5789 62.4387 14.7675 62.1031 15.1031C61.7675 15.4387 61.5789 15.8938 61.5789 16.3684V28.8947C61.5789 29.3693 61.7675 29.8245 62.1031 30.1601C62.4387 30.4957 62.8938 30.6842 63.3684 30.6842H73.2105C73.6851 30.6842 74.1403 30.4957 74.4759 30.1601C74.8115 29.8245 75 29.3693 75 28.8947V16.3684C75 15.8938 74.8115 15.4387 74.4759 15.1031C74.1403 14.7675 73.6851 14.5789 73.2105 14.5789ZM70.5263 11H59.7895C59.3149 11 58.8597 11.1885 58.5241 11.5241C58.1885 11.8597 58 12.3149 58 12.7895V25.3158H59.7895V12.7895H70.5263V11Z" fill="white"/>
<defs>
<filter id="filter0_d_141_100" x="0" y="0" width="286" height="49" filterUnits="userSpaceOnUse" color-interpolation-filters="sRGB">
<feFlood flood-opacity="0" result="BackgroundImageFix"/>
<feColorMatrix in="SourceAlpha" type="matrix" values="0 0 0 0 0 0 0 0 0 0 0 0 0 0 0 0 0 0 127 0" result="hardAlpha"/>
<feOffset dy="4"/>
<feGaussianBlur stdDeviation="2"/>
<feComposite in2="hardAlpha" operator="out"/>
<feColorMatrix type="matrix" values="0 0 0 0 0 0 0 0 0 0 0 0 0 0 0 0 0 0 0.25 0"/>
<feBlend mode="normal" in2="BackgroundImageFix" result="effect1_dropShadow_141_100"/>
<feBlend mode="normal" in="SourceGraphic" in2="effect1_dropShadow_141_100" result="shape"/>
</filter>
</defs>
</svg>
