<svg width="84" height="72" viewBox="0 0 84 72" fill="none" xmlns="http://www.w3.org/2000/svg">
<rect x="0.5" y="0.5" width="70.3207" height="70.3207" rx="16.5" fill="#A259FF" stroke="#A259FF"/>
<path d="M38.1514 55.9086H30.0962V52.5189H38.1514V55.9086ZM31.6895 54.6962H36.5645V53.725H31.6895V54.6962ZM38.856 46.5204H29.3726V45.308H38.856V46.5204ZM34.1396 46.8251C35.4092 46.8251 36.3719 46.9626 37.0278 47.2377C37.688 47.5127 38.0181 47.9232 38.0181 48.4691C38.0181 49.0108 37.6859 49.4213 37.0215 49.7006C36.3613 49.9799 35.4007 50.1195 34.1396 50.1195C32.887 50.1195 31.9243 49.9799 31.2515 49.7006C30.5828 49.4213 30.2485 49.0108 30.2485 48.4691C30.2485 47.9274 30.5828 47.5191 31.2515 47.244C31.9243 46.9647 32.887 46.8251 34.1396 46.8251ZM34.1396 47.9105C33.6191 47.9105 33.2065 47.9296 32.9019 47.9677C32.5972 48.0057 32.3665 48.065 32.21 48.1454C32.0576 48.2258 31.9814 48.3337 31.9814 48.4691C31.9814 48.5961 32.0597 48.7019 32.2163 48.7865C32.3729 48.8669 32.6077 48.9283 32.9209 48.9706C33.234 49.0087 33.6403 49.0298 34.1396 49.0341C34.6475 49.0298 35.0558 49.0087 35.3647 48.9706C35.6779 48.9283 35.9106 48.8669 36.063 48.7865C36.2153 48.7019 36.2915 48.5961 36.2915 48.4691C36.2915 48.3337 36.2153 48.2258 36.063 48.1454C35.9106 48.065 35.6821 48.0057 35.3774 47.9677C35.0728 47.9296 34.6602 47.9105 34.1396 47.9105ZM34.9458 46.1776H33.3208V44.3812H34.9458V46.1776ZM39.4146 51.9349H28.8774V50.6718H39.4146V51.9349ZM34.9458 51.3573H33.3208V49.7069H34.9458V51.3573Z" fill="white"/>
<path d="M49.4494 19.7507L36.1863 11.7376C35.9441 11.5912 35.6595 11.5131 35.3684 11.5132C35.0778 11.5134 34.7937 11.5914 34.552 11.7376L21.2888 19.7507C21.0257 19.9097 20.8261 20.1411 20.7193 20.4108C20.6125 20.6805 20.6043 20.9742 20.6958 21.2484C20.7873 21.5227 20.9737 21.763 21.2275 21.9339C21.4813 22.1048 21.7891 22.1972 22.1052 22.1974H23.5789V36.8882C23.5789 37.2424 23.7342 37.5821 24.0105 37.8325C24.2869 38.083 24.6618 38.2237 25.0526 38.2237H45.6842C46.075 38.2237 46.4499 38.083 46.7262 37.8325C47.0026 37.5821 47.1579 37.2424 47.1579 36.8882V22.1974H48.6315C48.948 22.1977 49.2561 22.1058 49.5104 21.9351C49.7647 21.7644 49.9516 21.5241 50.0435 21.2497C50.1354 20.9753 50.1274 20.6814 50.0207 20.4114C49.914 20.1415 49.7142 19.9098 49.4509 19.7507H49.4494ZM44.2105 35.5527H26.5263V19.7934L35.3684 14.4513L44.2105 19.7934V35.5527Z" fill="white"/>
</svg>
