<svg width="13" height="10" viewBox="0 0 13 10" fill="none" xmlns="http://www.w3.org/2000/svg">
<g id="Group 34592">
<g id="Group 34590">
<g id="Group 34588">
<g id="Group 34582">
<path id="Vector" d="M12.1875 0H0.8125C0.597012 0 0.390349 0.0681262 0.237976 0.189392C0.0856024 0.310657 0 0.475128 0 0.646624V8.40611C0 8.5776 0.0856024 8.74207 0.237976 8.86334C0.390349 8.98461 0.597012 9.05273 0.8125 9.05273H12.1875C12.403 9.05273 12.6097 8.98461 12.762 8.86334C12.9144 8.74207 13 8.5776 13 8.40611V0.646624C13 0.475128 12.9144 0.310657 12.762 0.189392C12.6097 0.0681262 12.403 0 12.1875 0ZM0.8125 8.40611V0.646624H12.1875V8.40611H0.8125Z" fill="white"/>
<path id="Vector_2" d="M2.81128 3.23333C3.05233 3.23333 3.28796 3.17644 3.48838 3.06987C3.6888 2.96329 3.84501 2.8118 3.93726 2.63457C4.0295 2.45734 4.05364 2.26232 4.00661 2.07417C3.95959 1.88602 3.84351 1.71319 3.67307 1.57755C3.50262 1.4419 3.28546 1.34952 3.04905 1.31209C2.81263 1.27467 2.56758 1.29388 2.34488 1.36729C2.12219 1.4407 1.93184 1.56502 1.79793 1.72453C1.66401 1.88403 1.59253 2.07156 1.59253 2.26339C1.59253 2.52064 1.72093 2.76734 1.94949 2.94924C2.17805 3.13114 2.48805 3.23333 2.81128 3.23333ZM2.81128 1.74609C2.94001 1.74545 3.06608 1.77525 3.1735 1.8317C3.28093 1.88815 3.36487 1.96872 3.41469 2.06318C3.46451 2.15765 3.47796 2.26176 3.45334 2.36232C3.42872 2.46288 3.36714 2.55535 3.2764 2.62802C3.18566 2.70069 3.06985 2.75028 2.94365 2.7705C2.81745 2.79073 2.68655 2.78067 2.56754 2.74162C2.44854 2.70256 2.34678 2.63626 2.27517 2.55112C2.20357 2.46598 2.16534 2.36584 2.16534 2.26339C2.16641 2.12732 2.2348 1.99705 2.35571 1.90083C2.47662 1.80461 2.64029 1.75018 2.81128 1.74933V1.74609Z" fill="white"/>
<path id="Vector_3" d="M8.4419 3.67605L6.24815 5.42193L4.62315 4.12868C4.54704 4.06847 4.44407 4.03467 4.33675 4.03467C4.22942 4.03467 4.12646 4.06847 4.05034 4.12868L1.59253 6.11059V7.02556L4.35097 4.83027L5.68753 5.8778L4.16409 7.09022H5.28128L8.71409 4.35824L11.375 6.46623V5.55449L9.01472 3.67605C8.9386 3.61583 8.83564 3.58203 8.72831 3.58203C8.62099 3.58203 8.51802 3.61583 8.4419 3.67605Z" fill="white"/>
</g>
</g>
</g>
</g>
</svg>
