<svg width="186" height="159" viewBox="0 0 186 159" fill="none" xmlns="http://www.w3.org/2000/svg">
<path d="M103.689 44.5803L103.554 43.1318L102.203 43.5917C99.8888 44.4131 97.4171 44.6652 94.9893 44.3274C92.4381 43.923 89.8269 44.2824 87.4715 45.3621C86.2228 45.9052 85.1269 46.7587 84.2837 47.845C83.4404 48.9313 82.8765 50.2157 82.6434 51.5814C82.3411 53.3457 82.4923 55.16 83.0823 56.8466C83.4622 55.9707 83.9061 55.1253 84.4103 54.3175C85.554 52.5987 87.1386 51.2345 88.9908 50.3743C90.7751 49.5422 92.7254 49.1485 94.6854 49.2247C92.8195 49.5162 91.0334 50.2013 89.441 51.2366C88.6728 51.7296 87.9694 52.3206 87.3477 52.9954C86.7531 53.67 86.2288 54.4058 85.7833 55.1912C84.9466 56.8328 84.3512 58.5915 84.0164 60.4104C83.6555 62.2352 83.4596 64.0901 83.4312 65.9515H85.682C85.7878 64.2821 86.0097 62.6225 86.346 60.9852C87.9075 61.8465 89.6586 62.2858 91.433 62.2613C93.0879 62.2601 94.7258 61.92 96.2498 61.2611C104.814 57.5249 103.689 45.0977 103.689 44.5803Z" fill="url(#paint0_linear_807_144)"/>
<path d="M40.1771 99L144.833 98.9992" stroke="url(#paint1_linear_807_144)" stroke-width="4" stroke-linecap="round" stroke-linejoin="round"/>
<path d="M49.4426 27.3936V83.1046M67.1475 27.3936V41.3213V55.2491V83.1046M120.656 27.3936V83.1046M135.921 27.3936V83.1046" stroke="url(#paint2_linear_807_144)" stroke-width="6" stroke-linecap="round"/>
<path d="M40 83.2627H145.01V97.1905H40V83.2627Z" stroke="url(#paint3_linear_807_144)" stroke-width="6" stroke-linejoin="round"/>
<path d="M43.1476 13.1301L92.564 3L141.98 13.1301V26.2129H43.1476V13.1301Z" stroke="#613599" stroke-width="6" stroke-linejoin="round"/>
<path d="M39.3994 128L43.0225 118.102H44.3213L47.9443 128H46.6455L43.7061 119.701H43.624L40.6846 128H39.3994ZM46.208 124.131V125.211H41.1357V124.131H46.208ZM50.5146 128H49.2842V118.102H50.5146V128ZM65.6494 123.871H64.583V116.967H65.6494V123.871ZM65.6494 128.943H57.7471V124.568H65.6494V128.943ZM58.7998 128.068H64.5967V125.443H58.7998V128.068ZM59.7295 118.635C59.7295 119.373 59.5837 120.07 59.292 120.727C59.0003 121.383 58.5924 121.955 58.0684 122.442C57.5443 122.93 56.9404 123.301 56.2568 123.557L55.71 122.709C56.3206 122.49 56.863 122.176 57.3369 121.766C57.8109 121.355 58.1777 120.877 58.4375 120.33C58.6973 119.783 58.8271 119.218 58.8271 118.635V117.445H59.7295V118.635ZM59.9209 118.635C59.9209 119.191 60.0531 119.726 60.3174 120.241C60.5817 120.756 60.9486 121.21 61.418 121.602C61.8874 121.993 62.4183 122.294 63.0107 122.504L62.4639 123.324C61.7985 123.087 61.2038 122.739 60.6797 122.278C60.1556 121.818 59.7477 121.276 59.4561 120.651C59.1644 120.027 59.0186 119.355 59.0186 118.635V117.445H59.9209V118.635ZM77.749 129.135H76.6826V116.953H77.749V129.135ZM69.4365 125.279C70.5576 125.279 71.5921 125.247 72.54 125.184C73.488 125.12 74.4769 125.006 75.5068 124.842L75.6162 125.744C74.568 125.908 73.5632 126.022 72.6016 126.086C71.64 126.15 70.585 126.182 69.4365 126.182H68.4248V125.279H69.4365ZM74.0576 122.408H69.5186V125.621H68.4248V121.533H72.9775V118.977H68.3975V118.088H74.0576V122.408ZM94.4424 124.268H83.3135V123.393H94.4424V124.268ZM89.4932 126.646H88.4268V123.816H89.4932V126.646ZM93.1982 128.848H84.7354V127.945H93.1982V128.848ZM85.8018 128.287H84.7354V125.525H85.8018V128.287ZM85.8701 118.908H91.8857V117.35H92.9521V122.203H84.8037V117.35H85.8701V118.908ZM91.8857 121.328V119.729H85.8701V121.328H91.8857ZM104.655 120.412H101.716V119.51H104.655V120.412ZM99.3916 118.867C99.3916 119.633 99.2526 120.348 98.9746 121.014C98.6966 121.679 98.3047 122.258 97.7988 122.75C97.293 123.242 96.7028 123.62 96.0283 123.885L95.4404 122.996C96.0511 122.777 96.5889 122.463 97.0537 122.053C97.5186 121.643 97.8786 121.162 98.1338 120.61C98.389 120.059 98.5166 119.478 98.5166 118.867V117.582H99.3916V118.867ZM99.5693 118.908C99.5693 119.455 99.6969 119.986 99.9521 120.501C100.207 121.016 100.563 121.467 101.019 121.854C101.474 122.242 101.994 122.536 102.577 122.736L101.989 123.598C101.342 123.352 100.77 122.996 100.273 122.531C99.7767 122.066 99.3916 121.522 99.1182 120.897C98.8447 120.273 98.708 119.61 98.708 118.908V117.582H99.5693V118.908ZM105.503 129.107H104.423V125.676H97.3271V124.814H105.503V129.107ZM105.503 124.145H104.423V116.953H105.503V124.145ZM113.063 117.172C113.966 117.172 114.738 117.252 115.381 117.411C116.023 117.571 116.513 117.808 116.851 118.122C117.188 118.437 117.356 118.817 117.356 119.264C117.356 119.719 117.188 120.104 116.851 120.419C116.513 120.733 116.023 120.973 115.381 121.137C114.738 121.301 113.966 121.387 113.063 121.396C112.161 121.387 111.389 121.301 110.746 121.137C110.104 120.973 109.611 120.733 109.27 120.419C108.928 120.104 108.757 119.719 108.757 119.264C108.757 118.817 108.928 118.437 109.27 118.122C109.611 117.808 110.104 117.571 110.746 117.411C111.389 117.252 112.161 117.172 113.063 117.172ZM113.063 117.979C112.398 117.979 111.826 118.029 111.348 118.129C110.869 118.229 110.505 118.377 110.254 118.573C110.003 118.769 109.878 118.999 109.878 119.264C109.878 119.546 110.001 119.785 110.247 119.981C110.493 120.177 110.855 120.326 111.334 120.426C111.812 120.526 112.389 120.576 113.063 120.576C113.738 120.576 114.314 120.526 114.793 120.426C115.271 120.326 115.636 120.175 115.887 119.975C116.137 119.774 116.263 119.537 116.263 119.264C116.263 118.999 116.135 118.771 115.88 118.58C115.625 118.389 115.258 118.241 114.779 118.136C114.301 118.031 113.729 117.979 113.063 117.979ZM118.601 123.092H107.526V122.217H118.601V123.092ZM117.179 126.865H109.96V128.342H108.894V126.072H116.126V124.965H108.866V124.145H117.179V126.865ZM117.548 128.971H108.894V128.123H117.548V128.971ZM134.214 124.281H123.126V123.406H134.214V124.281ZM129.196 123.775H128.13V121.807H129.196V123.775ZM132.901 122.203H124.603V121.342H132.901V122.203ZM132.833 118.184H125.683V121.793H124.603V117.309H132.833V118.184ZM132.505 120.139H125.354V119.318H132.505V120.139ZM128.677 125.197C129.57 125.188 130.326 125.259 130.946 125.409C131.566 125.56 132.04 125.781 132.368 126.072C132.696 126.364 132.86 126.719 132.86 127.139C132.86 127.558 132.696 127.911 132.368 128.198C132.04 128.485 131.566 128.704 130.946 128.854C130.326 129.005 129.57 129.08 128.677 129.08C127.784 129.08 127.022 129.005 126.394 128.854C125.765 128.704 125.288 128.485 124.965 128.198C124.641 127.911 124.479 127.558 124.479 127.139C124.479 126.71 124.644 126.353 124.972 126.065C125.3 125.778 125.776 125.56 126.4 125.409C127.025 125.259 127.784 125.188 128.677 125.197ZM128.677 126.004C128.011 126.004 127.446 126.047 126.981 126.134C126.517 126.22 126.163 126.348 125.922 126.517C125.68 126.685 125.56 126.893 125.56 127.139C125.56 127.385 125.678 127.59 125.915 127.754C126.152 127.918 126.505 128.041 126.975 128.123C127.444 128.205 128.011 128.246 128.677 128.246C129.342 128.246 129.905 128.205 130.365 128.123C130.826 128.041 131.176 127.918 131.418 127.754C131.66 127.59 131.78 127.385 131.78 127.139C131.78 126.893 131.66 126.685 131.418 126.517C131.176 126.348 130.823 126.22 130.358 126.134C129.894 126.047 129.333 126.004 128.677 126.004ZM141.31 119.934H135.212V119.059H141.31V119.934ZM138.261 120.754C138.771 120.754 139.225 120.87 139.621 121.103C140.018 121.335 140.33 121.661 140.558 122.08C140.785 122.499 140.899 122.978 140.899 123.516C140.899 124.053 140.785 124.532 140.558 124.951C140.33 125.37 140.018 125.701 139.621 125.942C139.225 126.184 138.771 126.305 138.261 126.305C137.759 126.305 137.311 126.184 136.914 125.942C136.518 125.701 136.208 125.368 135.984 124.944C135.761 124.521 135.649 124.044 135.649 123.516C135.649 122.987 135.761 122.511 135.984 122.087C136.208 121.663 136.518 121.335 136.914 121.103C137.311 120.87 137.759 120.754 138.261 120.754ZM138.261 121.656C137.951 121.656 137.668 121.738 137.413 121.902C137.158 122.066 136.96 122.287 136.818 122.565C136.677 122.843 136.606 123.16 136.606 123.516C136.606 123.871 136.679 124.19 136.825 124.473C136.971 124.755 137.169 124.974 137.42 125.129C137.671 125.284 137.951 125.361 138.261 125.361C138.58 125.361 138.867 125.284 139.122 125.129C139.377 124.974 139.578 124.755 139.724 124.473C139.869 124.19 139.942 123.871 139.942 123.516C139.942 123.16 139.869 122.843 139.724 122.565C139.578 122.287 139.377 122.066 139.122 121.902C138.867 121.738 138.58 121.656 138.261 121.656ZM145.589 129.107H144.563V116.953H145.589V129.107ZM144.905 122.969H142.581V122.08H144.905V122.969ZM142.95 128.506H141.938V117.254H142.95V128.506ZM138.808 119.592H137.741V117.322H138.808V119.592ZM10.9688 153.107H9.91602V140.953H10.9688V153.107ZM10.2305 146.818H7.85156V145.902H10.2305V146.818ZM8.16602 152.479H7.1543V141.227H8.16602V152.479ZM2.27344 149.443H1.20703V142.443H2.27344V149.443ZM1.95898 149.006C2.69727 149.006 3.41048 148.976 4.09863 148.917C4.78678 148.858 5.50456 148.755 6.25195 148.609L6.38867 149.566C5.58659 149.703 4.8278 149.803 4.1123 149.867C3.39681 149.931 2.67904 149.963 1.95898 149.963H1.20703V149.006H1.95898ZM25.5156 142.361H17.6133V141.486H25.5156V142.361ZM27.334 146.367H16.2051V145.506H27.334V146.367ZM25.8711 142.266C25.8711 142.885 25.8529 143.457 25.8164 143.981C25.7799 144.506 25.6888 145.1 25.543 145.766L24.4902 145.643C24.627 144.986 24.7135 144.408 24.75 143.906C24.7865 143.405 24.8047 142.858 24.8047 142.266V141.486H25.8711V142.266ZM25.9121 150.66H18.625V152.383H17.5449V149.812H24.8457V148.459H17.5312V147.598H25.9121V150.66ZM26.2266 152.971H17.5449V152.096H26.2266V152.971ZM42.9336 147.953H31.8184V147.064H42.9336V147.953ZM37.875 147.461H36.8223V145.191H37.875V147.461ZM37.7246 141.719C37.7246 142.411 37.499 143.045 37.0479 143.619C36.5967 144.193 36.002 144.672 35.2637 145.055C34.5254 145.438 33.737 145.702 32.8984 145.848L32.4883 144.986C33.2174 144.886 33.9147 144.676 34.5801 144.357C35.2454 144.038 35.7832 143.646 36.1934 143.182C36.6035 142.717 36.8086 142.229 36.8086 141.719V141.145H37.7246V141.719ZM37.8887 141.719C37.8887 142.229 38.096 142.717 38.5107 143.182C38.9255 143.646 39.4678 144.038 40.1377 144.357C40.8076 144.676 41.5026 144.886 42.2227 144.986L41.7852 145.848C40.9557 145.702 40.1742 145.438 39.4404 145.055C38.7067 144.672 38.1143 144.191 37.6631 143.612C37.2119 143.034 36.9863 142.402 36.9863 141.719V141.145H37.8887V141.719ZM41.5254 153.107H40.4453V150.004H33.0488V149.143H41.5254V153.107ZM47.8965 141.842C48.5345 141.842 49.0996 141.963 49.5918 142.204C50.084 142.446 50.4691 142.783 50.7471 143.216C51.0251 143.649 51.1641 144.143 51.1641 144.699C51.1641 145.255 51.0251 145.75 50.7471 146.183C50.4691 146.616 50.084 146.953 49.5918 147.194C49.0996 147.436 48.5345 147.557 47.8965 147.557C47.2676 147.557 46.7025 147.436 46.2012 147.194C45.6999 146.953 45.3102 146.616 45.0322 146.183C44.7542 145.75 44.6152 145.255 44.6152 144.699C44.6152 144.143 44.7542 143.649 45.0322 143.216C45.3102 142.783 45.6999 142.446 46.2012 142.204C46.7025 141.963 47.2676 141.842 47.8965 141.842ZM47.8965 142.785C47.4681 142.785 47.0853 142.865 46.748 143.024C46.4108 143.184 46.1465 143.41 45.9551 143.701C45.7637 143.993 45.668 144.326 45.668 144.699C45.668 145.073 45.7637 145.403 45.9551 145.69C46.1465 145.978 46.4108 146.203 46.748 146.367C47.0853 146.531 47.4681 146.613 47.8965 146.613C48.3249 146.613 48.7077 146.531 49.0449 146.367C49.3822 146.203 49.6442 145.978 49.8311 145.69C50.0179 145.403 50.1113 145.073 50.1113 144.699C50.1113 144.326 50.0179 143.993 49.8311 143.701C49.6442 143.41 49.3822 143.184 49.0449 143.024C48.7077 142.865 48.3249 142.785 47.8965 142.785ZM53.8848 153.135H52.8184V140.953H53.8848V153.135ZM43.9863 149.539C44.998 149.539 45.9163 149.53 46.7412 149.512C47.5661 149.493 48.4434 149.455 49.373 149.396C50.3027 149.336 51.1823 149.247 52.0117 149.129L52.0938 149.922C51.237 150.077 50.3483 150.193 49.4277 150.271C48.5072 150.348 47.6436 150.398 46.8369 150.421C46.0303 150.444 45.1302 150.455 44.1367 150.455L43.9863 149.539ZM63.7148 143.564C63.7148 144.285 63.569 144.966 63.2773 145.608C62.9857 146.251 62.5801 146.809 62.0605 147.283C61.541 147.757 60.944 148.117 60.2695 148.363L59.709 147.502C60.3105 147.283 60.8483 146.973 61.3223 146.572C61.7962 146.171 62.1654 145.711 62.4297 145.191C62.694 144.672 62.8262 144.13 62.8262 143.564V142.293H63.7148V143.564ZM63.9062 143.564C63.9062 144.102 64.0384 144.617 64.3027 145.109C64.5671 145.602 64.9362 146.035 65.4102 146.408C65.8841 146.782 66.4219 147.064 67.0234 147.256L66.4766 148.117C65.8021 147.889 65.2028 147.55 64.6787 147.099C64.1546 146.647 63.7467 146.119 63.4551 145.513C63.1634 144.907 63.0176 144.257 63.0176 143.564V142.293H63.9062V143.564ZM66.709 142.854H59.9824V141.979H66.709V142.854ZM69.5664 149.881H68.5V140.967H69.5664V149.881ZM69.9492 152.848H61.7188V151.945H69.9492V152.848ZM62.7852 152.342H61.7188V149.033H62.7852V152.342ZM81.3242 153.107H80.2441V140.953H81.3242V153.107ZM83.0469 146.709H80.791V145.793H83.0469V146.709ZM74.1875 144.617C74.1875 145.383 74.1237 146.142 73.9961 146.894C73.8685 147.646 73.6543 148.347 73.3535 148.999C73.0527 149.651 72.6562 150.173 72.1641 150.564L71.4531 149.771C71.918 149.425 72.2939 148.963 72.5811 148.384C72.8682 147.805 73.0732 147.192 73.1963 146.545C73.3193 145.898 73.3809 145.255 73.3809 144.617V142.744H74.1875V144.617ZM74.3926 144.617C74.3926 145.246 74.4404 145.88 74.5361 146.518C74.6318 147.156 74.8141 147.778 75.083 148.384C75.3519 148.99 75.7279 149.484 76.2109 149.867L75.582 150.66C75.0716 150.259 74.6683 149.715 74.3721 149.026C74.0758 148.338 73.873 147.616 73.7637 146.859C73.6543 146.103 73.5996 145.355 73.5996 144.617V142.744H74.3926V144.617ZM77.5645 144.617C77.5645 145.392 77.5098 146.158 77.4004 146.914C77.291 147.671 77.0905 148.386 76.7988 149.061C76.5072 149.735 76.1016 150.268 75.582 150.66L74.9805 149.867C75.4544 149.493 75.8258 149.01 76.0947 148.418C76.3636 147.826 76.5482 147.206 76.6484 146.559C76.7487 145.911 76.7988 145.264 76.7988 144.617V142.744H77.5645V144.617ZM77.8105 144.617C77.8105 145.283 77.8698 145.939 77.9883 146.586C78.1068 147.233 78.3096 147.839 78.5967 148.404C78.8838 148.969 79.2643 149.425 79.7383 149.771L79.0273 150.564C78.5352 150.182 78.1387 149.667 77.8379 149.02C77.5371 148.372 77.3229 147.673 77.1953 146.921C77.0677 146.169 77.0039 145.401 77.0039 144.617V142.744H77.8105V144.617ZM75.3223 143.1H71.8496V142.197H75.3223V143.1ZM79.2324 143.1H75.8555V142.197H79.2324V143.1ZM117.842 147.447H106.713V146.6H117.842V147.447ZM116.447 151.002H109.146V152.451H108.066V150.264H115.381V149.225H108.053V148.418H116.447V151.002ZM116.844 152.943H108.066V152.164H116.844V152.943ZM116.406 143.838H109.229V145.178H108.162V143.1H115.326V142.102H108.121V141.322H116.406V143.838ZM116.625 145.684H108.162V144.904H116.625V145.684ZM123.912 143.223H127.453V141.473H128.52V146.764H122.859V141.473H123.912V143.223ZM127.453 145.889V144.057H123.912V145.889H127.453ZM131.842 147.242H130.775V140.953H131.842V147.242ZM133.674 144.494H131.363V143.592H133.674V144.494ZM131.842 150.756H125.17V152.588H124.117V149.936H130.775V148.678H124.09V147.816H131.842V150.756ZM132.293 152.971H124.117V152.096H132.293V152.971ZM144.516 150.031H143.436V140.967H144.516V150.031ZM140.852 141.91C140.852 142.931 140.617 143.877 140.147 144.747C139.678 145.618 139.013 146.374 138.151 147.017C137.29 147.659 136.281 148.167 135.123 148.541L134.645 147.68C135.665 147.342 136.556 146.91 137.317 146.381C138.078 145.852 138.666 145.244 139.081 144.556C139.496 143.868 139.703 143.132 139.703 142.348V141.91H140.852ZM140.359 142.799H135.246V141.91H140.359V142.799ZM143.6 144.357H140.291V143.482H143.6V144.357ZM143.559 147.092H140.168V146.203H143.559V147.092ZM144.83 152.848H136.777V151.945H144.83V152.848ZM137.871 152.479H136.777V149.129H137.871V152.479ZM155.945 153.107H154.879V140.953H155.945V153.107ZM157.982 146.859H155.699V145.971H157.982V146.859ZM153.703 143.797H146.471V142.908H153.703V143.797ZM150.148 144.809C150.723 144.809 151.235 144.927 151.687 145.164C152.138 145.401 152.491 145.731 152.746 146.155C153.001 146.579 153.129 147.06 153.129 147.598C153.129 148.135 153.001 148.616 152.746 149.04C152.491 149.464 152.138 149.794 151.687 150.031C151.235 150.268 150.723 150.387 150.148 150.387C149.574 150.387 149.062 150.268 148.61 150.031C148.159 149.794 147.806 149.464 147.551 149.04C147.296 148.616 147.168 148.135 147.168 147.598C147.168 147.06 147.296 146.579 147.551 146.155C147.806 145.731 148.159 145.401 148.61 145.164C149.062 144.927 149.574 144.809 150.148 144.809ZM150.148 145.711C149.775 145.711 149.44 145.791 149.144 145.95C148.847 146.11 148.615 146.333 148.446 146.62C148.278 146.907 148.193 147.233 148.193 147.598C148.193 147.962 148.278 148.286 148.446 148.568C148.615 148.851 148.847 149.072 149.144 149.231C149.44 149.391 149.775 149.471 150.148 149.471C150.522 149.471 150.857 149.391 151.153 149.231C151.45 149.072 151.682 148.851 151.851 148.568C152.019 148.286 152.104 147.962 152.104 147.598C152.104 147.233 152.019 146.907 151.851 146.62C151.682 146.333 151.45 146.11 151.153 145.95C150.857 145.791 150.522 145.711 150.148 145.711ZM150.668 143.318H149.602V141.104H150.668V143.318ZM165.857 146.23H163.465V145.314H165.857V146.23ZM162.057 144.453C162.057 145.283 161.94 146.094 161.708 146.887C161.476 147.68 161.143 148.388 160.71 149.013C160.277 149.637 159.769 150.127 159.186 150.482L158.502 149.676C159.049 149.357 159.527 148.919 159.938 148.363C160.348 147.807 160.662 147.19 160.881 146.511C161.1 145.832 161.209 145.146 161.209 144.453V142.102H162.057V144.453ZM162.248 144.412C162.248 145.059 162.351 145.706 162.556 146.354C162.761 147.001 163.057 147.591 163.444 148.124C163.832 148.657 164.285 149.079 164.805 149.389L164.189 150.223C163.615 149.876 163.121 149.396 162.706 148.78C162.291 148.165 161.975 147.479 161.756 146.723C161.537 145.966 161.428 145.196 161.428 144.412V142.102H162.248V144.412ZM169.057 153.107H168.018V140.953H169.057V153.107ZM166.541 152.492H165.529V141.213H166.541V152.492ZM174.553 150.865H173.5V147.229H174.553V150.865ZM179.105 150.865H178.025V147.229H179.105V150.865ZM181.867 151.549H170.738V150.646H181.867V151.549ZM176.275 141.719C177.141 141.719 177.909 141.849 178.579 142.108C179.249 142.368 179.773 142.735 180.151 143.209C180.53 143.683 180.719 144.23 180.719 144.85C180.719 145.469 180.53 146.014 180.151 146.483C179.773 146.953 179.249 147.317 178.579 147.577C177.909 147.837 177.141 147.967 176.275 147.967C175.419 147.967 174.653 147.837 173.979 147.577C173.304 147.317 172.778 146.953 172.399 146.483C172.021 146.014 171.832 145.469 171.832 144.85C171.832 144.23 172.021 143.683 172.399 143.209C172.778 142.735 173.304 142.368 173.979 142.108C174.653 141.849 175.419 141.719 176.275 141.719ZM176.275 142.607C175.619 142.598 175.034 142.687 174.519 142.874C174.004 143.061 173.6 143.325 173.309 143.667C173.017 144.009 172.871 144.403 172.871 144.85C172.871 145.296 173.017 145.69 173.309 146.032C173.6 146.374 174.004 146.641 174.519 146.832C175.034 147.023 175.619 147.119 176.275 147.119C176.932 147.119 177.517 147.023 178.032 146.832C178.547 146.641 178.951 146.374 179.242 146.032C179.534 145.69 179.68 145.296 179.68 144.85C179.68 144.403 179.534 144.009 179.242 143.667C178.951 143.325 178.547 143.061 178.032 142.874C177.517 142.687 176.932 142.598 176.275 142.607ZM184.123 152.082C183.968 152.082 183.822 152.041 183.686 151.959C183.549 151.877 183.442 151.768 183.364 151.631C183.287 151.494 183.248 151.348 183.248 151.193C183.248 151.038 183.287 150.893 183.364 150.756C183.442 150.619 183.549 150.512 183.686 150.435C183.822 150.357 183.968 150.318 184.123 150.318C184.278 150.318 184.424 150.357 184.561 150.435C184.697 150.512 184.804 150.619 184.882 150.756C184.959 150.893 184.998 151.038 184.998 151.193C184.998 151.348 184.959 151.494 184.882 151.631C184.804 151.768 184.697 151.877 184.561 151.959C184.424 152.041 184.278 152.082 184.123 152.082Z" fill="#3D3A3A"/>
<path d="M88.7275 145.998H87.2783L87.9551 142.108H89.9102L88.7275 145.998ZM102.386 146.955H100.178V145.526H102.386V146.955ZM100.629 153.237H98.8789V140.803H100.629V153.237ZM92.9521 149.73H91.209V141.999H92.9521V149.73ZM92.2891 148.76C93.2461 148.76 94.2008 148.716 95.1533 148.63C96.1104 148.543 97.0719 148.404 98.0381 148.213L98.2295 149.662C97.2588 149.858 96.2835 149.997 95.3037 150.079C94.3285 150.157 93.3236 150.195 92.2891 150.195H91.209V148.76H92.2891ZM104.519 145.998H103.069L103.746 142.108H105.701L104.519 145.998Z" fill="#A259FF"/>
<defs>
<linearGradient id="paint0_linear_807_144" x1="93.1146" y1="43.1318" x2="93.1146" y2="65.9515" gradientUnits="userSpaceOnUse">
<stop stop-color="#A259FF"/>
<stop offset="1" stop-color="#613599"/>
</linearGradient>
<linearGradient id="paint1_linear_807_144" x1="92.505" y1="98.9996" x2="92.505" y2="99.9996" gradientUnits="userSpaceOnUse">
<stop stop-color="#A259FF"/>
<stop offset="1" stop-color="#613599"/>
</linearGradient>
<linearGradient id="paint2_linear_807_144" x1="92.682" y1="27.3936" x2="92.682" y2="83.1046" gradientUnits="userSpaceOnUse">
<stop stop-color="#A259FF"/>
<stop offset="1" stop-color="#613599"/>
</linearGradient>
<linearGradient id="paint3_linear_807_144" x1="92.5049" y1="83.2627" x2="92.5049" y2="97.1905" gradientUnits="userSpaceOnUse">
<stop stop-color="#A259FF"/>
<stop offset="1" stop-color="#613599"/>
</linearGradient>
</defs>
</svg>
