<svg width="10" height="11" viewBox="0 0 10 11" fill="none" xmlns="http://www.w3.org/2000/svg">
<path fill-rule="evenodd" clip-rule="evenodd" d="M0.333374 1.5C0.333374 1.10218 0.517749 0.720644 0.845937 0.43934C1.17413 0.158035 1.61925 0 2.08337 0H7.91671C8.38084 0 8.82596 0.158035 9.15415 0.43934C9.48233 0.720644 9.66671 1.10218 9.66671 1.5V9.514C9.66671 10.124 8.86171 10.479 8.28304 10.1245L5.00004 8.1145L1.71704 10.1245C1.13779 10.4795 0.333374 10.1245 0.333374 9.5145V1.5ZM2.08337 1C1.92866 1 1.78029 1.05268 1.6709 1.14645C1.5615 1.24021 1.50004 1.36739 1.50004 1.5V9.0285L4.49137 7.197C4.63979 7.10611 4.81764 7.05725 5.00004 7.05725C5.18245 7.05725 5.36029 7.10611 5.50871 7.197L8.50004 9.0285V1.5C8.50004 1.36739 8.43858 1.24021 8.32919 1.14645C8.21979 1.05268 8.07142 1 7.91671 1H2.08337Z" fill="#3D3A3A"/>
</svg>
