<svg width="225" height="207" viewBox="0 0 225 207" fill="none" xmlns="http://www.w3.org/2000/svg">
<g filter="url(#filter0_d_548_193)">
<rect x="4" width="216.207" height="198.964" rx="10" fill="url(#paint0_linear_548_193)"/>
<rect x="4" width="216.207" height="198.964" rx="10" fill="white" fill-opacity="0.45"/>
</g>
<path d="M103.04 100.114V79.396C103.04 76.5474 105.541 74.2166 108.598 74.2166H133.611C136.668 74.2166 139.169 76.5474 139.169 79.396V94.9341H129.636L126.079 90.4281C126.045 90.3745 125.996 90.3301 125.937 90.2993C125.879 90.2685 125.813 90.2523 125.746 90.2523C125.678 90.2523 125.612 90.2685 125.554 90.2993C125.496 90.3301 125.447 90.3745 125.412 90.4281L119.882 97.5238C119.715 97.6792 119.381 97.7051 119.215 97.5238L115.24 92.9919C115.201 92.9491 115.152 92.9148 115.096 92.8913C115.041 92.8678 114.981 92.8556 114.921 92.8556C114.86 92.8556 114.8 92.8678 114.745 92.8913C114.69 92.9148 114.641 92.9491 114.601 92.9919L108.737 99.8804C108.515 100.114 108.709 100.502 109.043 100.502H126.663V105.293H108.598C105.513 105.293 103.04 102.988 103.04 100.114ZM94.7022 123.421V120.831H89.1439V123.421H83.5855V71.627H89.1439V74.2166H94.7022V71.627H101.344C98.9821 73.5433 97.4814 76.2884 97.4814 79.396V100.114C97.4814 105.837 102.456 110.472 108.598 110.472H121.66C118.798 112.622 116.936 115.859 116.936 119.536C116.936 120.909 117.241 122.204 117.714 123.421H94.7022ZM89.1439 84.5754H94.7022V79.396H89.1439V84.5754ZM89.1439 94.9341H94.7022V89.7548H89.1439V94.9341ZM89.1439 105.293H94.7022V100.114H89.1439V105.293ZM94.7022 115.652V110.472H89.1439V115.652H94.7022ZM141.948 100.114V105.293H136.39V119.536C136.39 121.253 135.658 122.9 134.355 124.114C133.052 125.328 131.285 126.01 129.442 126.01C127.599 126.01 125.832 125.328 124.529 124.114C123.226 122.9 122.494 121.253 122.494 119.536C122.495 118.461 122.782 117.404 123.331 116.459C123.88 115.513 124.673 114.71 125.638 114.122C126.603 113.533 127.71 113.178 128.859 113.088C130.009 112.998 131.164 113.176 132.221 113.606V100.114H141.948Z" fill="#CCCCCC"/>
<defs>
<filter id="filter0_d_548_193" x="0" y="0" width="224.207" height="206.964" filterUnits="userSpaceOnUse" color-interpolation-filters="sRGB">
<feFlood flood-opacity="0" result="BackgroundImageFix"/>
<feColorMatrix in="SourceAlpha" type="matrix" values="0 0 0 0 0 0 0 0 0 0 0 0 0 0 0 0 0 0 127 0" result="hardAlpha"/>
<feOffset dy="4"/>
<feGaussianBlur stdDeviation="2"/>
<feComposite in2="hardAlpha" operator="out"/>
<feColorMatrix type="matrix" values="0 0 0 0 0 0 0 0 0 0 0 0 0 0 0 0 0 0 0.25 0"/>
<feBlend mode="normal" in2="BackgroundImageFix" result="effect1_dropShadow_548_193"/>
<feBlend mode="normal" in="SourceGraphic" in2="effect1_dropShadow_548_193" result="shape"/>
</filter>
<linearGradient id="paint0_linear_548_193" x1="112.104" y1="0" x2="112.104" y2="198.964" gradientUnits="userSpaceOnUse">
<stop offset="0.085" stop-color="#E2D5F3"/>
<stop offset="0.17" stop-color="#DCD3E8"/>
<stop offset="0.2125" stop-color="#D9D2E2"/>
<stop offset="0.67" stop-color="#E8E8E8"/>
<stop offset="1" stop-color="white"/>
</linearGradient>
</defs>
</svg>
