<svg width="62" height="47" viewBox="0 0 62 47" fill="none" xmlns="http://www.w3.org/2000/svg">
<path id="Vector" d="M20.6667 24.1785V6.59414C20.6667 4.17629 23.3238 2.19805 26.5714 2.19805H53.1429C56.3905 2.19805 59.0476 4.17629 59.0476 6.59414V19.7824H48.921L45.1419 15.9578C45.1052 15.9123 45.0532 15.8746 44.9911 15.8485C44.9291 15.8223 44.8589 15.8086 44.7876 15.8086C44.7163 15.8086 44.6462 15.8223 44.5841 15.8485C44.522 15.8746 44.4701 15.9123 44.4333 15.9578L38.5581 21.9805C38.381 22.1124 38.0267 22.1343 37.8495 21.9805L33.6276 18.1339C33.5855 18.0976 33.5334 18.0685 33.4748 18.0485C33.4162 18.0286 33.3525 18.0183 33.2881 18.0183C33.2237 18.0183 33.16 18.0286 33.1014 18.0485C33.0428 18.0685 32.9907 18.0976 32.9486 18.1339L26.719 23.9807C26.4829 24.1785 26.6895 24.5082 27.0438 24.5082H45.7619V28.5746H26.5714C23.2943 28.5746 20.6667 26.6183 20.6667 24.1785ZM11.8095 43.9609V41.7629H5.90476V43.9609H0V0H5.90476V2.19805H11.8095V0H18.8657C16.3562 1.62655 14.7619 3.95648 14.7619 6.59414V24.1785C14.7619 29.0362 20.0467 32.9707 26.5714 32.9707H40.4476C37.4067 34.7951 35.4286 37.5426 35.4286 40.6639C35.4286 41.8288 35.7533 42.9279 36.2552 43.9609H11.8095ZM5.90476 10.9902H11.8095V6.59414H5.90476V10.9902ZM5.90476 19.7824H11.8095V15.3863H5.90476V19.7824ZM5.90476 28.5746H11.8095V24.1785H5.90476V28.5746ZM11.8095 37.3668V32.9707H5.90476V37.3668H11.8095ZM62 24.1785V28.5746H56.0952V40.6639C56.0952 42.1213 55.3176 43.519 53.9334 44.5495C52.5492 45.58 50.6718 46.159 48.7143 46.159C46.7567 46.159 44.8794 45.58 43.4952 44.5495C42.111 43.519 41.3333 42.1213 41.3333 40.6639C41.334 39.7517 41.6396 38.854 42.2227 38.0517C42.8057 37.2494 43.6479 36.5678 44.6732 36.0684C45.6984 35.569 46.8746 35.2674 48.0955 35.1909C49.3164 35.1145 50.5437 35.2655 51.6667 35.6303V24.1785H62Z" fill="#9C9C9C"/>
</svg>
