<svg width="16" height="16" viewBox="0 0 16 16" fill="none" xmlns="http://www.w3.org/2000/svg">
<rect width="16" height="16" fill="#F5F5F5"/>
<g id="iPhone 13 &#38; 14 - 1">
<rect width="390" height="844" transform="translate(-343 -797)" fill="url(#paint0_linear_0_1)"/>
<rect width="390" height="844" transform="translate(-343 -797)" fill="white" fill-opacity="0.45"/>
<g id="Group 34655">
<rect id="Rectangle 3944" x="-52" y="-8" width="68" height="31" rx="10" fill="#EAE3F2"/>
<g id="Group 34643">
<g id="oui:arrow-up">
<path id="Vector" d="M5.15735 2.93105L9.76835 7.61605C9.86948 7.71827 9.92621 7.85626 9.92621 8.00005C9.92621 8.14384 9.86948 8.28183 9.76835 8.38405L5.15835 13.0691C5.05728 13.1719 5.00064 13.3103 5.00064 13.4546C5.00064 13.5988 5.05728 13.7372 5.15835 13.8401C5.20773 13.8907 5.26675 13.931 5.33192 13.9584C5.3971 13.9859 5.46712 14.0001 5.53786 14.0001C5.60859 14.0001 5.67861 13.9859 5.74378 13.9584C5.80896 13.931 5.86798 13.8907 5.91735 13.8401L10.5274 9.15605C10.8303 8.84753 11 8.43243 11 8.00005C11 7.56768 10.8303 7.15257 10.5274 6.84405L5.91735 2.16005C5.86796 2.10925 5.80888 2.06887 5.74362 2.04129C5.67835 2.01372 5.60821 1.99951 5.53735 1.99951C5.4665 1.99951 5.39636 2.01372 5.33109 2.04129C5.26583 2.06887 5.20675 2.10925 5.15735 2.16005C5.05628 2.26291 4.99964 2.40135 4.99964 2.54555C4.99964 2.68976 5.05628 2.8282 5.15735 2.93105Z" fill="#6F4F98"/>
</g>
</g>
</g>
</g>
<defs>
<linearGradient id="paint0_linear_0_1" x1="195" y1="0" x2="195" y2="844" gradientUnits="userSpaceOnUse">
<stop offset="0.085" stop-color="#E2D5F3"/>
<stop offset="0.17" stop-color="#DCD3E8"/>
<stop offset="0.2125" stop-color="#D9D2E2"/>
<stop offset="0.67" stop-color="#E8E8E8"/>
<stop offset="1" stop-color="white"/>
</linearGradient>
</defs>
</svg>
