<svg width="157" height="33" viewBox="0 0 157 33" fill="none" xmlns="http://www.w3.org/2000/svg">
<g filter="url(#filter0_d_809_147)">
<rect x="4" width="142" height="25" rx="10" fill="black"/>
<rect x="4.5" y="0.5" width="141" height="24" rx="9.5" stroke="#A259FF"/>
</g>
<path d="M53.7129 18.0137H52.6172V14.1699H53.7129V18.0137ZM57.9609 14.7441H48.3867V13.8242H57.9609V14.7441ZM53.5898 9.58789C53.5898 10.1777 53.4023 10.7188 53.0273 11.2109C52.6562 11.6992 52.1504 12.1074 51.5098 12.4355C50.8691 12.7598 50.1523 12.9805 49.3594 13.0977L48.9492 12.2129C49.6211 12.127 50.2363 11.9512 50.7949 11.6855C51.3535 11.4199 51.7969 11.1035 52.125 10.7363C52.4531 10.3691 52.6172 9.98633 52.6172 9.58789V9.3125H53.5898V9.58789ZM53.7246 9.58789C53.7246 9.97852 53.8867 10.3594 54.2109 10.7305C54.5352 11.1016 54.9766 11.4199 55.5352 11.6855C56.0938 11.9512 56.707 12.127 57.375 12.2129L56.9707 13.0977C56.1855 12.9883 55.4707 12.7656 54.8262 12.4297C54.1855 12.0938 53.6797 11.6816 53.3086 11.1934C52.9375 10.7012 52.752 10.166 52.752 9.58789V9.3125H53.7246V9.58789ZM57.0527 9.6582H49.3008V8.76758H57.0527V9.6582ZM53.7129 9.07227H52.6172V7.49609H53.7129V9.07227ZM62.25 9.99219C62.25 10.625 62.1309 11.2148 61.8926 11.7617C61.6543 12.3047 61.3145 12.7773 60.873 13.1797C60.4316 13.582 59.9082 13.8848 59.3027 14.0879L58.7578 13.2207C59.2812 13.0488 59.7383 12.7988 60.1289 12.4707C60.5234 12.1426 60.8223 11.7656 61.0254 11.3398C61.2324 10.9102 61.3359 10.4609 61.3359 9.99219V9.48828H62.25V9.99219ZM62.4316 9.99219C62.4316 10.4336 62.5371 10.8555 62.748 11.2578C62.9629 11.6562 63.2656 12.0098 63.6562 12.3184C64.0508 12.627 64.5117 12.8652 65.0391 13.0332L64.4941 13.9121C63.8926 13.7246 63.3691 13.4375 62.9238 13.0508C62.4785 12.6641 62.1348 12.209 61.8926 11.6855C61.6504 11.1582 61.5293 10.5938 61.5293 9.99219V9.48828H62.4316V9.99219ZM64.7227 9.74023H59.0508V8.84961H64.7227V9.74023ZM62.4551 9.19531H61.3359V7.56055H62.4551V9.19531ZM66.9727 11.5859H64.3652V10.6836H66.9727V11.5859ZM67.5117 15.3242H66.3984V7.50195H67.5117V15.3242ZM67.793 17.7852H60.6914V16.8652H67.793V17.7852ZM61.8105 17.3926H60.6914V14.6328H61.8105V17.3926ZM77.1211 8.83789H70.3301V7.94141H77.1211V8.83789ZM78.7383 12.2363H69.1289V11.3516H78.7383V12.2363ZM77.5195 8.62695C77.5195 9.16211 77.5039 9.6543 77.4727 10.1035C77.4414 10.5488 77.3633 11.0527 77.2383 11.6152L76.1426 11.498C76.2598 10.9473 76.334 10.4609 76.3652 10.0391C76.3965 9.61328 76.4121 9.14258 76.4121 8.62695V7.94141H77.5195V8.62695ZM77.5312 15.9336H71.3789V17.2871H70.2656V15.0723H76.4238V14.0645H70.2539V13.1914H77.5312V15.9336ZM77.8008 17.8848H70.2656V17H77.8008V17.8848ZM85.8867 9.37695C85.8867 10.0176 85.7676 10.6211 85.5293 11.1875C85.2949 11.75 84.957 12.2383 84.5156 12.6523C84.0742 13.0664 83.5508 13.3809 82.9453 13.5957L82.3535 12.7344C82.8887 12.5469 83.3535 12.2812 83.748 11.9375C84.1465 11.5938 84.4531 11.2012 84.668 10.7598C84.8828 10.3145 84.9902 9.85352 84.9902 9.37695V8.57422H85.8867V9.37695ZM86.0918 9.37695C86.0918 9.82617 86.1934 10.2598 86.3965 10.6777C86.5996 11.0918 86.8906 11.4609 87.2695 11.7852C87.6523 12.1094 88.1055 12.3613 88.6289 12.541L88.0664 13.4023C87.4727 13.1953 86.959 12.8926 86.5254 12.4941C86.0918 12.0918 85.7598 11.625 85.5293 11.0938C85.3027 10.5586 85.1895 9.98633 85.1895 9.37695V8.57422H86.0918V9.37695ZM88.3652 9.08984H82.6758V8.19336H88.3652V9.08984ZM90.6797 13.8242H89.5723V7.49023H90.6797V13.8242ZM92.209 11.1289H90.3691V10.1914H92.209V11.1289ZM90.6797 17.9902H89.5723V15.2422H83.7422V14.3457H90.6797V17.9902ZM96.3281 9.11914C96.3281 9.80273 96.209 10.4395 95.9707 11.0293C95.7363 11.6152 95.3965 12.127 94.9512 12.5645C94.5059 12.998 93.9766 13.3301 93.3633 13.5605L92.7598 12.6582C93.3105 12.4707 93.7871 12.1992 94.1895 11.8438C94.5918 11.4883 94.8984 11.0762 95.1094 10.6074C95.3203 10.1387 95.4258 9.64258 95.4258 9.11914V8.07617H96.3281V9.11914ZM96.5332 9.06641C96.5332 9.55469 96.6328 10.0195 96.832 10.4609C97.0352 10.9023 97.3281 11.2891 97.7109 11.6211C98.0938 11.9492 98.5469 12.1992 99.0703 12.3711L98.4551 13.2383C97.8691 13.0234 97.3652 12.7129 96.9434 12.3066C96.5215 11.9004 96.1953 11.4219 95.9648 10.8711C95.7383 10.3164 95.625 9.71484 95.625 9.06641V8.07617H96.5332V9.06641ZM101.555 13.6895H100.441V7.49023H101.555V13.6895ZM98.0332 13.9883C98.7715 13.9883 99.4062 14.0664 99.9375 14.2227C100.473 14.375 100.881 14.6035 101.162 14.9082C101.447 15.209 101.59 15.5703 101.59 15.9922C101.59 16.4062 101.447 16.7617 101.162 17.0586C100.881 17.3594 100.473 17.5879 99.9375 17.7441C99.4062 17.9004 98.7715 17.9785 98.0332 17.9785C97.3027 17.9785 96.6719 17.9004 96.1406 17.7441C95.6094 17.5879 95.2012 17.3594 94.916 17.0586C94.6309 16.7617 94.4883 16.4062 94.4883 15.9922C94.4883 15.5703 94.6309 15.209 94.916 14.9082C95.2012 14.6035 95.6094 14.375 96.1406 14.2227C96.6719 14.0664 97.3027 13.9883 98.0332 13.9883ZM98.0332 14.8555C97.5293 14.8555 97.0918 14.9004 96.7207 14.9902C96.3535 15.0762 96.0723 15.2051 95.877 15.377C95.6855 15.5449 95.5898 15.75 95.5898 15.9922C95.5898 16.2188 95.6855 16.416 95.877 16.584C96.0723 16.748 96.3535 16.875 96.7207 16.9648C97.0918 17.0547 97.5293 17.0996 98.0332 17.0996C98.5488 17.0996 98.9883 17.0547 99.3516 16.9648C99.7188 16.875 99.998 16.748 100.189 16.584C100.385 16.416 100.482 16.2188 100.482 15.9922C100.482 15.75 100.385 15.5449 100.189 15.377C99.998 15.2051 99.7188 15.0762 99.3516 14.9902C98.9883 14.9004 98.5488 14.8555 98.0332 14.8555ZM100.641 10.5488H98.2266V9.63477H100.641V10.5488ZM111.352 17.9902H110.25V7.49023H111.352V17.9902ZM113.045 12.6699H111.1V11.75H113.045V12.6699ZM109.336 10.0449H103.113V9.13672H109.336V10.0449ZM106.271 10.8242C106.771 10.8242 107.219 10.9277 107.613 11.1348C108.012 11.3418 108.322 11.6309 108.545 12.002C108.771 12.373 108.885 12.793 108.885 13.2617C108.885 13.7344 108.771 14.1562 108.545 14.5273C108.322 14.8984 108.012 15.1875 107.613 15.3945C107.219 15.6016 106.771 15.7051 106.271 15.7051C105.768 15.7051 105.318 15.6016 104.924 15.3945C104.529 15.1875 104.219 14.8984 103.992 14.5273C103.77 14.1562 103.658 13.7344 103.658 13.2617C103.658 12.793 103.77 12.373 103.992 12.002C104.219 11.6309 104.529 11.3418 104.924 11.1348C105.318 10.9277 105.768 10.8242 106.271 10.8242ZM106.271 11.7441C105.975 11.7441 105.709 11.8086 105.475 11.9375C105.24 12.0625 105.055 12.2402 104.918 12.4707C104.785 12.7012 104.719 12.9648 104.719 13.2617C104.719 13.5625 104.785 13.8262 104.918 14.0527C105.055 14.2793 105.24 14.457 105.475 14.5859C105.709 14.7109 105.975 14.7734 106.271 14.7734C106.568 14.7734 106.834 14.7109 107.068 14.5859C107.303 14.457 107.486 14.2793 107.619 14.0527C107.752 13.8262 107.818 13.5625 107.818 13.2617C107.818 12.9648 107.752 12.7012 107.619 12.4707C107.486 12.2402 107.303 12.0625 107.068 11.9375C106.834 11.8086 106.568 11.7441 106.271 11.7441ZM106.816 9.52344H105.709V7.63086H106.816V9.52344ZM122.273 17.9902H121.148V7.49023H122.273V17.9902ZM119.156 8.62109C119.156 9.69141 118.99 10.6816 118.658 11.5918C118.33 12.498 117.803 13.334 117.076 14.0996C116.35 14.8613 115.404 15.5215 114.24 16.0801L113.643 15.1777C114.654 14.7012 115.484 14.1465 116.133 13.5137C116.785 12.8809 117.268 12.1738 117.58 11.3926C117.893 10.6113 118.049 9.74805 118.049 8.80273V8.62109H119.156ZM118.529 9.51172H114.152V8.62109H118.529V9.51172Z" fill="#A259FF"/>
<g filter="url(#filter1_d_809_147)">
<path d="M32.718 15.4005L33.8626 15.0703L40.7546 8.09624C40.8089 8.04053 40.8392 7.96568 40.8388 7.88785C40.8385 7.81002 40.8075 7.73545 40.7526 7.68026L40.3399 7.26299C40.3132 7.23558 40.2813 7.21376 40.2462 7.19881C40.211 7.18385 40.1731 7.17605 40.1349 7.17587C40.0967 7.17569 40.0588 7.18313 40.0234 7.19775C39.9881 7.21237 39.956 7.23389 39.9291 7.26104L33.0553 14.2169L32.718 15.4005ZM41.1569 6.43624L41.5697 6.85416C42.1391 7.43068 42.1443 8.36077 41.5801 8.93144L34.4782 16.1187L32.0316 16.8233C31.8822 16.8651 31.7224 16.8459 31.5871 16.77C31.4518 16.6941 31.3522 16.5676 31.3101 16.4184C31.2788 16.311 31.2783 16.197 31.3088 16.0895L32.0205 13.5936L39.1036 6.42519C39.2383 6.28958 39.3986 6.18214 39.5753 6.10914C39.7519 6.03615 39.9413 5.99905 40.1324 6.00002C40.3236 6.00099 40.5126 6.04 40.6885 6.11478C40.8644 6.18956 41.0236 6.29927 41.1569 6.43624ZM33.6696 7.18564C33.992 7.18564 34.2533 7.45018 34.2533 7.77646C34.2538 7.85359 34.2391 7.93006 34.21 8.00151C34.181 8.07295 34.1381 8.13797 34.0839 8.19284C34.0297 8.24771 33.9652 8.29136 33.8941 8.32129C33.823 8.35122 33.7467 8.36685 33.6696 8.36727H31.3348C30.69 8.36727 30.1674 8.89634 30.1674 9.54825V16.6367C30.1674 17.2893 30.69 17.8184 31.3348 17.8184H38.3392C38.984 17.8184 39.5072 17.2893 39.5072 16.6367V14.2741C39.5072 13.9478 39.7685 13.6833 40.0909 13.6833C40.4133 13.6833 40.6746 13.9478 40.6746 14.2748V16.6367C40.6746 17.9419 39.6288 19 38.3392 19H31.3348C30.0452 19 29 17.9419 29 16.6367V9.54825C29 8.24378 30.0452 7.18564 31.3348 7.18564H33.6696Z" fill="#A259FF"/>
</g>
<defs>
<filter id="filter0_d_809_147" x="0" y="0" width="150" height="33" filterUnits="userSpaceOnUse" color-interpolation-filters="sRGB">
<feFlood flood-opacity="0" result="BackgroundImageFix"/>
<feColorMatrix in="SourceAlpha" type="matrix" values="0 0 0 0 0 0 0 0 0 0 0 0 0 0 0 0 0 0 127 0" result="hardAlpha"/>
<feOffset dy="4"/>
<feGaussianBlur stdDeviation="2"/>
<feComposite in2="hardAlpha" operator="out"/>
<feColorMatrix type="matrix" values="0 0 0 0 0 0 0 0 0 0 0 0 0 0 0 0 0 0 0.25 0"/>
<feBlend mode="normal" in2="BackgroundImageFix" result="effect1_dropShadow_809_147"/>
<feBlend mode="normal" in="SourceGraphic" in2="effect1_dropShadow_809_147" result="shape"/>
</filter>
<filter id="filter1_d_809_147" x="25" y="6" width="21" height="21" filterUnits="userSpaceOnUse" color-interpolation-filters="sRGB">
<feFlood flood-opacity="0" result="BackgroundImageFix"/>
<feColorMatrix in="SourceAlpha" type="matrix" values="0 0 0 0 0 0 0 0 0 0 0 0 0 0 0 0 0 0 127 0" result="hardAlpha"/>
<feOffset dy="4"/>
<feGaussianBlur stdDeviation="2"/>
<feComposite in2="hardAlpha" operator="out"/>
<feColorMatrix type="matrix" values="0 0 0 0 0 0 0 0 0 0 0 0 0 0 0 0 0 0 0.25 0"/>
<feBlend mode="normal" in2="BackgroundImageFix" result="effect1_dropShadow_809_147"/>
<feBlend mode="normal" in="SourceGraphic" in2="effect1_dropShadow_809_147" result="shape"/>
</filter>
</defs>
</svg>
