<svg width="286" height="49" viewBox="0 0 286 49" fill="none" xmlns="http://www.w3.org/2000/svg">
<g filter="url(#filter0_d_645_397)">
<rect x="4" width="278" height="41" rx="10" fill="#121212"/>
<rect x="4.5" y="0.5" width="277" height="40" rx="9.5" stroke="#A259FF"/>
</g>
<path d="M75.3599 27.2744H73.9609V14.1128H75.3599V27.2744ZM68.3286 15.1016C68.9829 15.1016 69.5664 15.292 70.0791 15.6729C70.5918 16.0537 70.9922 16.5908 71.2803 17.2842C71.5684 17.9775 71.7124 18.7856 71.7124 19.7085C71.7124 20.6362 71.5684 21.4468 71.2803 22.1401C70.9922 22.8335 70.5918 23.3706 70.0791 23.7515C69.5664 24.1274 68.9829 24.3154 68.3286 24.3154C67.6743 24.3154 67.0884 24.1274 66.5708 23.7515C66.0581 23.3706 65.6577 22.8335 65.3696 22.1401C65.0815 21.4468 64.9375 20.6362 64.9375 19.7085C64.9375 18.7856 65.0815 17.9775 65.3696 17.2842C65.6577 16.5908 66.0581 16.0537 66.5708 15.6729C67.0884 15.292 67.6743 15.1016 68.3286 15.1016ZM68.3286 16.3467C67.9282 16.3467 67.5718 16.4834 67.2593 16.7568C66.9468 17.0303 66.7051 17.4209 66.5342 17.9287C66.3682 18.4316 66.2852 19.0249 66.2852 19.7085C66.2852 20.3872 66.3682 20.9805 66.5342 21.4883C66.7051 21.9961 66.9468 22.3867 67.2593 22.6602C67.5718 22.9287 67.9282 23.063 68.3286 23.063C68.729 23.063 69.083 22.9287 69.3906 22.6602C69.7031 22.3867 69.9448 21.9961 70.1157 21.4883C70.2866 20.9805 70.3721 20.3872 70.3721 19.7085C70.3721 19.0249 70.2866 18.4316 70.1157 17.9287C69.9448 17.4209 69.7056 17.0303 69.3979 16.7568C69.0903 16.4834 68.7339 16.3467 68.3286 16.3467ZM91.4292 18.8223H88.1479V17.6797H91.4292V18.8223ZM92.0518 23.7441H90.6602V14.1274H92.0518V23.7441ZM92.4033 26.9814H83.5264V25.8315H92.4033V26.9814ZM84.9253 26.4395H83.5264V22.8799H84.9253V26.4395ZM85.5405 16.7788C85.5405 17.5796 85.3916 18.3364 85.0938 19.0493C84.7959 19.7622 84.3687 20.3848 83.812 20.917C83.2603 21.4492 82.606 21.8545 81.8491 22.1328L81.124 21.0049C81.7832 20.7803 82.3594 20.4507 82.8525 20.0161C83.3506 19.5815 83.7314 19.0859 83.9951 18.5293C84.2637 17.9727 84.3979 17.3892 84.3979 16.7788V15.7754H85.5405V16.7788ZM85.8042 16.7861C85.8042 17.3379 85.9312 17.875 86.1851 18.3975C86.4438 18.915 86.8101 19.3789 87.2837 19.7891C87.7622 20.1992 88.3237 20.5117 88.9683 20.7266L88.2578 21.8325C87.5205 21.5786 86.8833 21.1978 86.3462 20.6899C85.8091 20.1772 85.3965 19.584 85.1084 18.9102C84.8203 18.2363 84.6763 17.5283 84.6763 16.7861V15.7754H85.8042V16.7861ZM88.6313 16.2661H81.5415V15.1309H88.6313V16.2661ZM98.6436 17.4526C98.6436 18.4878 98.4849 19.479 98.1675 20.4263C97.8501 21.3687 97.4058 22.2012 96.8345 22.9238C96.2632 23.6416 95.5967 24.186 94.835 24.5571L93.9634 23.3926C94.647 23.085 95.2549 22.626 95.7871 22.0156C96.3242 21.4004 96.7417 20.6948 97.0396 19.8989C97.3423 19.0981 97.4937 18.2827 97.4937 17.4526V15.2041H98.6436V17.4526ZM98.8926 17.4526C98.8926 18.2485 99.0391 19.0273 99.332 19.7891C99.6299 20.5508 100.042 21.2295 100.57 21.8252C101.102 22.4209 101.7 22.8677 102.364 23.1655L101.529 24.2715C100.792 23.9199 100.133 23.3975 99.5518 22.7041C98.9756 22.0107 98.5288 21.21 98.2114 20.3018C97.894 19.3936 97.7354 18.4438 97.7354 17.4526V15.2041H98.8926V17.4526ZM104.95 27.2744H103.551V14.1128H104.95V27.2744ZM111.688 23.854H110.296V20.7485H111.688V23.854ZM110.978 14.9478C111.646 14.9478 112.25 15.0796 112.787 15.3433C113.324 15.6069 113.746 15.978 114.054 16.4565C114.361 16.9302 114.515 17.4697 114.515 18.0752C114.515 18.6807 114.361 19.2202 114.054 19.6938C113.746 20.1626 113.324 20.5312 112.787 20.7998C112.25 21.0635 111.646 21.1953 110.978 21.1953C110.299 21.1953 109.691 21.0635 109.154 20.7998C108.617 20.5312 108.197 20.1626 107.894 19.6938C107.596 19.2202 107.447 18.6807 107.447 18.0752C107.447 17.4697 107.596 16.9302 107.894 16.4565C108.197 15.978 108.617 15.6069 109.154 15.3433C109.691 15.0796 110.299 14.9478 110.978 14.9478ZM110.978 16.1343C110.562 16.1343 110.189 16.2173 109.857 16.3833C109.53 16.5444 109.271 16.7715 109.081 17.0645C108.895 17.3574 108.802 17.6943 108.802 18.0752C108.802 18.4561 108.895 18.793 109.081 19.0859C109.271 19.3789 109.53 19.6084 109.857 19.7744C110.189 19.9355 110.562 20.0161 110.978 20.0161C111.393 20.0161 111.761 19.9355 112.083 19.7744C112.411 19.6084 112.669 19.3789 112.86 19.0859C113.05 18.793 113.146 18.4561 113.146 18.0752C113.146 17.6943 113.05 17.3574 112.86 17.0645C112.669 16.7715 112.411 16.5444 112.083 16.3833C111.761 16.2173 111.393 16.1343 110.978 16.1343ZM117.276 27.2378H115.892V14.1128H117.276V27.2378ZM119.298 20.6313H116.881V19.4375H119.298V20.6313ZM106.876 23.312C108.053 23.3071 109.042 23.2974 109.842 23.2827C110.648 23.2681 111.52 23.2363 112.457 23.1875C113.399 23.1338 114.281 23.0508 115.101 22.9385L115.189 23.9785C114.334 24.1299 113.438 24.2422 112.501 24.3154C111.563 24.3887 110.667 24.4326 109.813 24.4473C108.958 24.4619 108.05 24.4668 107.088 24.4619L106.876 23.312ZM133.976 22.0303H132.591V14.1128H133.976V22.0303ZM135.887 18.6978H133.587V17.5259H135.887V18.6978ZM133.976 27.0767H125.589V22.7261H133.976V27.0767ZM126.959 25.9487H132.599V23.8247H126.959V25.9487ZM131.493 16.5737H123.678V15.4458H131.493V16.5737ZM127.589 17.1377C128.219 17.1377 128.773 17.2354 129.251 17.4307C129.73 17.6211 130.104 17.8945 130.372 18.251C130.641 18.6074 130.775 19.0176 130.775 19.4814C130.775 19.9502 130.641 20.3628 130.372 20.7192C130.104 21.0757 129.73 21.3516 129.251 21.5469C128.773 21.7373 128.219 21.8325 127.589 21.8325C126.959 21.8325 126.402 21.7373 125.919 21.5469C125.436 21.3516 125.06 21.0757 124.791 20.7192C124.527 20.3628 124.396 19.9502 124.396 19.4814C124.396 19.0176 124.527 18.6074 124.791 18.251C125.06 17.8945 125.436 17.6211 125.919 17.4307C126.402 17.2354 126.959 17.1377 127.589 17.1377ZM127.589 18.1997C127.223 18.1997 126.898 18.251 126.615 18.3535C126.332 18.4561 126.114 18.605 125.963 18.8003C125.812 18.9907 125.736 19.2178 125.736 19.4814C125.736 19.75 125.812 19.9819 125.963 20.1772C126.114 20.3677 126.329 20.5166 126.607 20.624C126.891 20.7266 127.218 20.7827 127.589 20.7925C127.965 20.7827 128.292 20.7266 128.57 20.624C128.854 20.5166 129.073 20.3677 129.229 20.1772C129.386 19.9819 129.464 19.75 129.464 19.4814C129.464 19.2178 129.383 18.9907 129.222 18.8003C129.061 18.605 128.839 18.4561 128.556 18.3535C128.277 18.251 127.955 18.1997 127.589 18.1997ZM128.285 16.0317H126.9V14.0176H128.285V16.0317ZM139.879 15.6802C139.879 16.7788 139.818 17.8091 139.696 18.771C139.574 19.728 139.352 20.6729 139.029 21.6055C138.707 22.5381 138.253 23.4097 137.667 24.2202L136.576 23.6123C137.142 22.8701 137.577 22.084 137.879 21.2539C138.187 20.4238 138.399 19.5718 138.517 18.6978C138.634 17.8188 138.692 16.8496 138.692 15.79V15.6802H139.879ZM139.396 16.8154H136.898V15.6802H139.396V16.8154ZM142.794 15.6802C142.794 16.9058 142.748 18.0239 142.655 19.0347C142.562 20.0454 142.354 21.0732 142.032 22.1182C141.71 23.1631 141.234 24.1299 140.604 25.0186L139.535 24.396C140.135 23.5806 140.584 22.6992 140.882 21.752C141.185 20.8047 141.38 19.8696 141.468 18.9468C141.561 18.0239 141.607 16.9717 141.607 15.79V15.6802H142.794ZM142.354 16.8154H140.282V15.6802H142.354V16.8154ZM147.987 27.2378H146.646V14.1128H147.987V27.2378ZM144.42 20.3311H142.171V19.2031H144.42V20.3311ZM145.475 26.6079H144.164V14.4497H145.475V26.6079ZM159.815 27.2378H158.438V14.1128H159.815V27.2378ZM161.932 20.5874H159.5V19.4375H161.932V20.5874ZM157.296 17.3062H149.518V16.1709H157.296V17.3062ZM153.465 18.2803C154.09 18.2803 154.649 18.4097 155.143 18.6685C155.641 18.9272 156.029 19.2886 156.307 19.7524C156.59 20.2163 156.732 20.7412 156.732 21.3271C156.732 21.918 156.59 22.4453 156.307 22.9092C156.029 23.373 155.641 23.7344 155.143 23.9932C154.649 24.252 154.09 24.3813 153.465 24.3813C152.835 24.3813 152.274 24.252 151.781 23.9932C151.288 23.7344 150.899 23.373 150.616 22.9092C150.338 22.4453 150.199 21.918 150.199 21.3271C150.199 20.7412 150.338 20.2163 150.616 19.7524C150.899 19.2886 151.288 18.9272 151.781 18.6685C152.274 18.4097 152.835 18.2803 153.465 18.2803ZM153.465 19.4302C153.094 19.4302 152.762 19.5107 152.469 19.6719C152.176 19.8281 151.944 20.0503 151.773 20.3384C151.607 20.6265 151.524 20.9561 151.524 21.3271C151.524 21.7031 151.607 22.0327 151.773 22.3159C151.944 22.5991 152.176 22.8213 152.469 22.9824C152.762 23.1387 153.094 23.2168 153.465 23.2168C153.836 23.2168 154.168 23.1387 154.461 22.9824C154.754 22.8213 154.984 22.5991 155.15 22.3159C155.316 22.0327 155.399 21.7031 155.399 21.3271C155.399 20.9561 155.316 20.6265 155.15 20.3384C154.984 20.0503 154.754 19.8281 154.461 19.6719C154.168 19.5107 153.836 19.4302 153.465 19.4302ZM154.146 16.6543H152.762V14.2886H154.146V16.6543ZM172.508 17.4966H168.919V16.3467H172.508V17.4966ZM172.552 20.3018H168.919V19.1738H172.552V20.3018ZM169.249 21.4517H163.148V15.2407H169.249V21.4517ZM164.532 20.353H167.879V16.3687H164.532V20.353ZM173.497 23.7002H172.105V14.1274H173.497V23.7002ZM173.79 26.9814H164.92V25.8315H173.79V26.9814ZM166.327 26.3735H164.92V22.8286H166.327V26.3735ZM185.838 19.9941H184.469V18.0312H185.838V19.9941ZM185.45 15.3433C185.45 15.9683 185.223 16.5273 184.769 17.0205C184.315 17.5137 183.69 17.9141 182.894 18.2217C182.103 18.5244 181.212 18.7173 180.221 18.8003L179.774 17.7676C180.609 17.7041 181.366 17.5576 182.044 17.3281C182.728 17.0986 183.263 16.8105 183.648 16.4639C184.039 16.1123 184.234 15.7388 184.234 15.3433V14.9551H185.45V15.3433ZM186.087 15.3433C186.087 15.7437 186.28 16.1172 186.666 16.4639C187.052 16.8105 187.584 17.0986 188.263 17.3281C188.946 17.5576 189.708 17.7041 190.548 17.7676L190.101 18.8003C189.115 18.7173 188.226 18.5244 187.435 18.2217C186.649 17.9141 186.026 17.5161 185.567 17.0278C185.113 16.5347 184.886 15.9731 184.886 15.3433V14.9551H186.087V15.3433ZM190.079 15.5703H180.272V14.4937H190.079V15.5703ZM190.042 23.2681H180.287V22.1987H190.042V23.2681ZM191.178 20.5947H179.166V19.4595H191.178V20.5947ZM185.15 23.832C186 23.832 186.722 23.8979 187.318 24.0298C187.914 24.1567 188.368 24.3521 188.68 24.6157C188.993 24.8745 189.149 25.1895 189.149 25.5605C189.149 25.9365 188.993 26.2539 188.68 26.5127C188.368 26.7715 187.914 26.9668 187.318 27.0986C186.722 27.2354 186 27.3037 185.15 27.3037C183.871 27.3037 182.887 27.1548 182.198 26.8569C181.515 26.564 181.173 26.1318 181.173 25.5605C181.173 25.1797 181.327 24.8623 181.634 24.6084C181.942 24.3496 182.391 24.1567 182.982 24.0298C183.578 23.8979 184.3 23.832 185.15 23.832ZM185.15 24.7842C184.583 24.7842 184.112 24.8135 183.736 24.8721C183.36 24.9258 183.075 25.0088 182.879 25.1211C182.684 25.2334 182.586 25.3799 182.586 25.5605C182.586 25.7314 182.687 25.8779 182.887 26C183.087 26.1221 183.377 26.21 183.758 26.2637C184.144 26.3223 184.608 26.3516 185.15 26.3516C185.707 26.3516 186.175 26.3223 186.556 26.2637C186.942 26.21 187.232 26.1221 187.428 26C187.623 25.8779 187.721 25.7314 187.721 25.5605C187.721 25.3799 187.623 25.2334 187.428 25.1211C187.232 25.0088 186.949 24.9258 186.578 24.8721C186.207 24.8135 185.731 24.7842 185.15 24.7842ZM185.853 22.8872H184.461V21.0488H185.853V22.8872ZM204.112 22.0889H192.145V20.9683H204.112V22.0889ZM202.772 26.9814H193.661V25.8315H202.772V26.9814ZM195.052 26.1904H193.661V23.1509H195.052V26.1904ZM198.128 14.5669C199.066 14.5571 199.889 14.6572 200.597 14.8672C201.305 15.0771 201.849 15.3823 202.23 15.7827C202.616 16.1782 202.809 16.647 202.809 17.189C202.809 17.7358 202.616 18.207 202.23 18.6025C201.849 18.998 201.305 19.3032 200.597 19.5181C199.889 19.7329 199.066 19.8403 198.128 19.8403C197.176 19.8403 196.346 19.7329 195.638 19.5181C194.935 19.3032 194.391 18.998 194.005 18.6025C193.619 18.207 193.426 17.7358 193.426 17.189C193.426 16.647 193.619 16.1782 194.005 15.7827C194.391 15.3823 194.935 15.0771 195.638 14.8672C196.346 14.6572 197.176 14.5571 198.128 14.5669ZM198.128 15.6655C197.459 15.6655 196.878 15.7266 196.385 15.8486C195.897 15.9707 195.521 16.1465 195.257 16.376C194.999 16.6006 194.869 16.8716 194.869 17.189C194.869 17.5015 194.999 17.7725 195.257 18.002C195.521 18.2314 195.897 18.4072 196.385 18.5293C196.878 18.6465 197.459 18.7051 198.128 18.7051C198.792 18.7051 199.369 18.6465 199.857 18.5293C200.35 18.4072 200.726 18.2314 200.985 18.002C201.249 17.7725 201.38 17.5015 201.38 17.189C201.38 16.8716 201.249 16.6006 200.985 16.376C200.726 16.1465 200.35 15.9707 199.857 15.8486C199.369 15.7266 198.792 15.6655 198.128 15.6655ZM218.651 15.834H210.184V14.7134H218.651V15.834ZM219.281 15.856C219.281 16.4224 219.276 16.9033 219.266 17.2988C219.256 17.6943 219.225 18.1387 219.171 18.6318C219.117 19.125 219.034 19.6499 218.922 20.2065L217.545 20.0894C217.662 19.5522 217.748 19.0444 217.801 18.5659C217.855 18.0874 217.887 17.6553 217.896 17.2695C217.906 16.8838 217.911 16.4126 217.911 15.856V14.7134H219.281V15.856ZM210.03 18.522L209.847 17.3574L218.314 17.1084V18.1411L210.03 18.522ZM220.724 22.1328H208.792V21.0122H220.724V22.1328ZM214.916 21.7373H213.517V19.1812H214.916V21.7373ZM219.566 27.04H210.265V25.9121H219.566V27.04ZM211.664 26.3955H210.265V23.1509H211.664V26.3955ZM229.593 18.9175H227.396V17.8115H229.593V18.9175ZM232.926 23.9492H231.6V14.1274H232.926V23.9492ZM230.355 23.6196H229.022V14.3838H230.355V23.6196ZM233.299 26.9814H224.283V25.8315H233.299V26.9814ZM225.697 26.5347H224.283V22.8652H225.697V26.5347ZM223.17 20.7485C224.308 20.7485 225.206 20.729 225.865 20.6899C226.524 20.646 227.191 20.5557 227.865 20.4189L228.004 21.5322C227.286 21.6738 226.578 21.7666 225.88 21.8105C225.187 21.8545 224.283 21.8765 223.17 21.8765H222.32V20.7485H223.17ZM227.323 16.3101H223.653V21.1514H222.32V15.1748H227.323V16.3101ZM226.795 19.0273H223.236V17.9507H226.795V19.0273ZM246.71 25.6118H234.698V24.4619H246.71V25.6118ZM241.202 17.1743C241.202 18.0679 240.973 18.8784 240.514 19.606C240.055 20.3335 239.42 20.9365 238.609 21.415C237.804 21.8936 236.891 22.228 235.87 22.4185L235.328 21.2979C236.227 21.1514 237.027 20.8779 237.73 20.4775C238.438 20.0771 238.99 19.5913 239.386 19.02C239.786 18.4487 239.986 17.8335 239.986 17.1743V16.896H241.202V17.1743ZM241.4 17.1743C241.4 17.8335 241.598 18.4487 241.993 19.02C242.394 19.5913 242.948 20.0771 243.656 20.4775C244.369 20.8779 245.172 21.1514 246.065 21.2979L245.509 22.4185C244.483 22.228 243.565 21.8936 242.755 21.415C241.949 20.9365 241.314 20.3335 240.851 19.606C240.392 18.8784 240.162 18.0679 240.162 17.1743V16.896H241.4V17.1743ZM245.597 17.2695H235.79V16.1416H245.597V17.2695ZM241.371 16.5664H240.001V14.3984H241.371V16.5664Z" fill="white"/>
<path d="M55.2105 28.8947H45.3684V16.3684H55.2105M55.2105 14.5789H45.3684C44.8938 14.5789 44.4387 14.7675 44.1031 15.1031C43.7675 15.4387 43.5789 15.8938 43.5789 16.3684V28.8947C43.5789 29.3693 43.7675 29.8245 44.1031 30.1601C44.4387 30.4957 44.8938 30.6842 45.3684 30.6842H55.2105C55.6851 30.6842 56.1403 30.4957 56.4759 30.1601C56.8115 29.8245 57 29.3693 57 28.8947V16.3684C57 15.8938 56.8115 15.4387 56.4759 15.1031C56.1403 14.7675 55.6851 14.5789 55.2105 14.5789ZM52.5263 11H41.7895C41.3149 11 40.8597 11.1885 40.5241 11.5241C40.1885 11.8597 40 12.3149 40 12.7895V25.3158H41.7895V12.7895H52.5263V11Z" fill="white"/>
<defs>
<filter id="filter0_d_645_397" x="0" y="0" width="286" height="49" filterUnits="userSpaceOnUse" color-interpolation-filters="sRGB">
<feFlood flood-opacity="0" result="BackgroundImageFix"/>
<feColorMatrix in="SourceAlpha" type="matrix" values="0 0 0 0 0 0 0 0 0 0 0 0 0 0 0 0 0 0 127 0" result="hardAlpha"/>
<feOffset dy="4"/>
<feGaussianBlur stdDeviation="2"/>
<feComposite in2="hardAlpha" operator="out"/>
<feColorMatrix type="matrix" values="0 0 0 0 0 0 0 0 0 0 0 0 0 0 0 0 0 0 0.25 0"/>
<feBlend mode="normal" in2="BackgroundImageFix" result="effect1_dropShadow_645_397"/>
<feBlend mode="normal" in="SourceGraphic" in2="effect1_dropShadow_645_397" result="shape"/>
</filter>
</defs>
</svg>
