<svg width="286" height="49" viewBox="0 0 286 49" fill="none" xmlns="http://www.w3.org/2000/svg">
<g filter="url(#filter0_d_797_447)">
<rect x="4" width="278" height="41" rx="10" fill="#A259FF"/>
<rect x="4.5" y="0.5" width="277" height="40" rx="9.5" stroke="#A259FF"/>
</g>
<path d="M112.141 27.2671H110.771V22.4624H112.141V27.2671ZM117.451 23.1802H105.483V22.0303H117.451V23.1802ZM111.987 16.7349C111.987 17.4722 111.753 18.1484 111.284 18.7637C110.82 19.374 110.188 19.8843 109.387 20.2944C108.586 20.6997 107.69 20.9756 106.699 21.1221L106.187 20.0161C107.026 19.9087 107.795 19.689 108.494 19.3569C109.192 19.0249 109.746 18.6294 110.156 18.1704C110.566 17.7114 110.771 17.2329 110.771 16.7349V16.3906H111.987V16.7349ZM112.156 16.7349C112.156 17.2231 112.358 17.6992 112.764 18.1631C113.169 18.627 113.721 19.0249 114.419 19.3569C115.117 19.689 115.884 19.9087 116.719 20.0161L116.213 21.1221C115.232 20.9854 114.338 20.707 113.533 20.2871C112.732 19.8672 112.1 19.3521 111.636 18.7417C111.172 18.1265 110.94 17.4575 110.94 16.7349V16.3906H112.156V16.7349ZM116.316 16.8228H106.626V15.7095H116.316V16.8228ZM112.141 16.0903H110.771V14.1201H112.141V16.0903ZM122.812 17.2402C122.812 18.0312 122.664 18.7686 122.366 19.4521C122.068 20.1309 121.643 20.7217 121.091 21.2246C120.54 21.7275 119.885 22.106 119.128 22.3599L118.447 21.2759C119.102 21.061 119.673 20.7485 120.161 20.3384C120.654 19.9282 121.028 19.457 121.282 18.9248C121.541 18.3877 121.67 17.8262 121.67 17.2402V16.6104H122.812V17.2402ZM123.04 17.2402C123.04 17.792 123.171 18.3193 123.435 18.8223C123.704 19.3203 124.082 19.7622 124.57 20.1479C125.063 20.5337 125.64 20.8315 126.299 21.0415L125.618 22.1401C124.866 21.9058 124.211 21.5469 123.655 21.0635C123.098 20.5801 122.668 20.0112 122.366 19.3569C122.063 18.6978 121.912 17.9922 121.912 17.2402V16.6104H123.04V17.2402ZM125.903 16.9253H118.813V15.812H125.903V16.9253ZM123.069 16.2441H121.67V14.2007H123.069V16.2441ZM128.716 19.2324H125.457V18.1045H128.716V19.2324ZM129.39 23.9053H127.998V14.1274H129.39V23.9053ZM129.741 26.9814H120.864V25.8315H129.741V26.9814ZM122.263 26.4907H120.864V23.041H122.263V26.4907ZM141.401 15.7974H132.913V14.6768H141.401V15.7974ZM143.423 20.0454H131.411V18.9395H143.423V20.0454ZM141.899 15.5337C141.899 16.2026 141.88 16.8179 141.841 17.3794C141.802 17.936 141.704 18.5659 141.548 19.269L140.178 19.1226C140.325 18.4341 140.417 17.8262 140.457 17.2988C140.496 16.7666 140.515 16.1782 140.515 15.5337V14.6768H141.899V15.5337ZM141.914 24.667H134.224V26.3589H132.832V23.5903H140.53V22.3306H132.817V21.2393H141.914V24.667ZM142.251 27.106H132.832V26H142.251V27.106ZM152.358 16.4712C152.358 17.272 152.209 18.0264 151.912 18.7344C151.619 19.4375 151.196 20.0479 150.645 20.5654C150.093 21.083 149.438 21.4761 148.682 21.7446L147.942 20.668C148.611 20.4336 149.192 20.1016 149.685 19.6719C150.183 19.2422 150.566 18.7515 150.835 18.1997C151.104 17.6431 151.238 17.0669 151.238 16.4712V15.4678H152.358V16.4712ZM152.615 16.4712C152.615 17.0327 152.742 17.5747 152.996 18.0972C153.25 18.6147 153.613 19.0762 154.087 19.4814C154.565 19.8867 155.132 20.2017 155.786 20.4263L155.083 21.5029C154.341 21.2441 153.699 20.8657 153.157 20.3677C152.615 19.8647 152.2 19.2812 151.912 18.6172C151.628 17.9482 151.487 17.2329 151.487 16.4712V15.4678H152.615V16.4712ZM155.457 16.1123H148.345V14.9917H155.457V16.1123ZM158.35 22.0303H156.965V14.1128H158.35V22.0303ZM160.261 18.6611H157.961V17.4893H160.261V18.6611ZM158.35 27.2378H156.965V23.8027H149.678V22.6821H158.35V27.2378ZM165.41 16.1489C165.41 17.0034 165.261 17.7993 164.963 18.5366C164.67 19.269 164.246 19.9087 163.689 20.4556C163.132 20.9976 162.471 21.4126 161.704 21.7007L160.95 20.5728C161.638 20.3384 162.234 19.999 162.737 19.5547C163.24 19.1104 163.623 18.5952 163.887 18.0093C164.15 17.4233 164.282 16.8032 164.282 16.1489V14.8452H165.41V16.1489ZM165.667 16.083C165.667 16.6934 165.791 17.2744 166.04 17.8262C166.294 18.3779 166.66 18.8613 167.139 19.2764C167.617 19.6865 168.184 19.999 168.838 20.2139L168.069 21.2979C167.336 21.0293 166.707 20.6411 166.179 20.1333C165.652 19.6255 165.244 19.0273 164.956 18.3389C164.673 17.6455 164.531 16.8936 164.531 16.083V14.8452H165.667V16.083ZM171.943 21.8618H170.552V14.1128H171.943V21.8618ZM167.542 22.2354C168.464 22.2354 169.258 22.333 169.922 22.5283C170.591 22.7188 171.101 23.0044 171.453 23.3853C171.809 23.7612 171.987 24.2129 171.987 24.7402C171.987 25.2578 171.809 25.7021 171.453 26.0732C171.101 26.4492 170.591 26.7349 169.922 26.9302C169.258 27.1255 168.464 27.2231 167.542 27.2231C166.628 27.2231 165.84 27.1255 165.176 26.9302C164.512 26.7349 164.001 26.4492 163.645 26.0732C163.289 25.7021 163.11 25.2578 163.11 24.7402C163.11 24.2129 163.289 23.7612 163.645 23.3853C164.001 23.0044 164.512 22.7188 165.176 22.5283C165.84 22.333 166.628 22.2354 167.542 22.2354ZM167.542 23.3193C166.912 23.3193 166.365 23.3755 165.901 23.4878C165.442 23.5952 165.09 23.7563 164.846 23.9712C164.607 24.1812 164.487 24.4375 164.487 24.7402C164.487 25.0234 164.607 25.27 164.846 25.48C165.09 25.6851 165.442 25.8438 165.901 25.9561C166.365 26.0684 166.912 26.1245 167.542 26.1245C168.186 26.1245 168.735 26.0684 169.189 25.9561C169.648 25.8438 169.998 25.6851 170.237 25.48C170.481 25.27 170.603 25.0234 170.603 24.7402C170.603 24.4375 170.481 24.1812 170.237 23.9712C169.998 23.7563 169.648 23.5952 169.189 23.4878C168.735 23.3755 168.186 23.3193 167.542 23.3193ZM170.801 17.936H167.783V16.7935H170.801V17.936ZM184.189 27.2378H182.812V14.1128H184.189V27.2378ZM186.306 20.5874H183.875V19.4375H186.306V20.5874ZM181.67 17.3062H173.892V16.1709H181.67V17.3062ZM177.839 18.2803C178.464 18.2803 179.023 18.4097 179.517 18.6685C180.015 18.9272 180.403 19.2886 180.681 19.7524C180.964 20.2163 181.106 20.7412 181.106 21.3271C181.106 21.918 180.964 22.4453 180.681 22.9092C180.403 23.373 180.015 23.7344 179.517 23.9932C179.023 24.252 178.464 24.3813 177.839 24.3813C177.209 24.3813 176.648 24.252 176.155 23.9932C175.662 23.7344 175.273 23.373 174.99 22.9092C174.712 22.4453 174.573 21.918 174.573 21.3271C174.573 20.7412 174.712 20.2163 174.99 19.7524C175.273 19.2886 175.662 18.9272 176.155 18.6685C176.648 18.4097 177.209 18.2803 177.839 18.2803ZM177.839 19.4302C177.468 19.4302 177.136 19.5107 176.843 19.6719C176.55 19.8281 176.318 20.0503 176.147 20.3384C175.981 20.6265 175.898 20.9561 175.898 21.3271C175.898 21.7031 175.981 22.0327 176.147 22.3159C176.318 22.5991 176.55 22.8213 176.843 22.9824C177.136 23.1387 177.468 23.2168 177.839 23.2168C178.21 23.2168 178.542 23.1387 178.835 22.9824C179.128 22.8213 179.358 22.5991 179.524 22.3159C179.69 22.0327 179.773 21.7031 179.773 21.3271C179.773 20.9561 179.69 20.6265 179.524 20.3384C179.358 20.0503 179.128 19.8281 178.835 19.6719C178.542 19.5107 178.21 19.4302 177.839 19.4302ZM178.521 16.6543H177.136V14.2886H178.521V16.6543ZM197.842 27.2378H196.436V14.1128H197.842V27.2378ZM193.945 15.5264C193.945 16.8643 193.738 18.1021 193.323 19.2397C192.913 20.3726 192.253 21.4175 191.345 22.3745C190.437 23.3267 189.255 24.1519 187.8 24.8501L187.053 23.7222C188.318 23.1265 189.355 22.4331 190.166 21.6421C190.981 20.8511 191.584 19.9673 191.975 18.9907C192.366 18.0142 192.561 16.9351 192.561 15.7534V15.5264H193.945ZM193.162 16.6396H187.69V15.5264H193.162V16.6396Z" fill="white"/>
<path d="M85.862 24.293L87.3588 23.8612L96.3714 14.7412C96.4425 14.6684 96.482 14.5705 96.4816 14.4687C96.4811 14.3669 96.4406 14.2694 96.3688 14.1973L95.8291 13.6516C95.7942 13.6158 95.7525 13.5872 95.7065 13.5677C95.6605 13.5481 95.611 13.5379 95.561 13.5377C95.511 13.5374 95.4614 13.5472 95.4152 13.5663C95.369 13.5854 95.3271 13.6135 95.2919 13.649L86.3031 22.7452L85.862 24.293ZM96.8975 12.5705L97.4373 13.117C98.1819 13.8709 98.1887 15.0872 97.4509 15.8334L88.1638 25.2322L84.9644 26.1535C84.7691 26.2082 84.56 26.1831 84.3831 26.0839C84.2062 25.9846 84.076 25.8192 84.0209 25.624C83.9799 25.4836 83.9793 25.3346 84.0192 25.1939L84.9499 21.9301L94.2124 12.556C94.3885 12.3787 94.5982 12.2382 94.8292 12.1427C95.0602 12.0473 95.3079 11.9988 95.5578 12C95.8077 12.0013 96.0549 12.0523 96.2849 12.1501C96.515 12.2479 96.7232 12.3914 96.8975 12.5705ZM87.1064 13.5505C87.528 13.5505 87.8697 13.8964 87.8697 14.3231C87.8704 14.4239 87.8511 14.5239 87.8131 14.6174C87.7751 14.7108 87.7191 14.7958 87.6482 14.8676C87.5773 14.9393 87.493 14.9964 87.4 15.0355C87.307 15.0747 87.2073 15.0951 87.1064 15.0957H84.0532C83.21 15.0957 82.5266 15.7875 82.5266 16.64V25.9096C82.5266 26.7629 83.21 27.4548 84.0532 27.4548H93.2128C94.056 27.4548 94.7402 26.7629 94.7402 25.9096V22.82C94.7402 22.3933 95.0819 22.0474 95.5035 22.0474C95.9251 22.0474 96.2668 22.3933 96.2668 22.8209V25.9096C96.2668 27.6163 94.8992 29 93.2128 29H84.0532C82.3668 29 81 27.6163 81 25.9096V16.64C81 14.9342 82.3668 13.5505 84.0532 13.5505H87.1064Z" fill="white"/>
<defs>
<filter id="filter0_d_797_447" x="0" y="0" width="286" height="49" filterUnits="userSpaceOnUse" color-interpolation-filters="sRGB">
<feFlood flood-opacity="0" result="BackgroundImageFix"/>
<feColorMatrix in="SourceAlpha" type="matrix" values="0 0 0 0 0 0 0 0 0 0 0 0 0 0 0 0 0 0 127 0" result="hardAlpha"/>
<feOffset dy="4"/>
<feGaussianBlur stdDeviation="2"/>
<feComposite in2="hardAlpha" operator="out"/>
<feColorMatrix type="matrix" values="0 0 0 0 0 0 0 0 0 0 0 0 0 0 0 0 0 0 0.25 0"/>
<feBlend mode="normal" in2="BackgroundImageFix" result="effect1_dropShadow_797_447"/>
<feBlend mode="normal" in="SourceGraphic" in2="effect1_dropShadow_797_447" result="shape"/>
</filter>
</defs>
</svg>
