<svg width="14" height="12" viewBox="0 0 14 12" fill="none" xmlns="http://www.w3.org/2000/svg">
<g id="mingcute:bookmark-line" clip-path="url(#clip0_241_145)">
<g id="Group">
<path id="Vector" fill-rule="evenodd" clip-rule="evenodd" d="M0.333496 2.5C0.333496 2.10218 0.517871 1.72064 0.846059 1.43934C1.17425 1.15804 1.61937 1 2.0835 1H7.91683C8.38096 1 8.82608 1.15804 9.15427 1.43934C9.48246 1.72064 9.66683 2.10218 9.66683 2.5V10.514C9.66683 11.124 8.86183 11.479 8.28316 11.1245L5.00016 9.1145L1.71716 11.1245C1.13791 11.4795 0.333496 11.1245 0.333496 10.5145V2.5ZM2.0835 2C1.92879 2 1.78041 2.05268 1.67102 2.14645C1.56162 2.24021 1.50016 2.36739 1.50016 2.5V10.0285L4.4915 8.197C4.63991 8.10611 4.81776 8.05725 5.00016 8.05725C5.18257 8.05725 5.36041 8.10611 5.50883 8.197L8.50016 10.0285V2.5C8.50016 2.36739 8.43871 2.24021 8.32931 2.14645C8.21991 2.05268 8.07154 2 7.91683 2H2.0835Z" fill="white"/>
</g>
</g>
<defs>
<clipPath id="clip0_241_145">
<rect width="14" height="12" fill="white"/>
</clipPath>
</defs>
</svg>
